<?xml version="1.0" encoding="UTF-8"?>
<svg width="217px" height="231px" viewBox="0 0 217 231" version="1.1" xmlns="http://www.w3.org/2000/svg" xmlns:xlink="http://www.w3.org/1999/xlink">
    <title>circulos izquierda</title>
    <g id="version-1.1" stroke="none" stroke-width="1" fill="none" fill-rule="evenodd">
        <g id="Home" transform="translate(-64.000000, -1582.000000)" fill="#F5C116">
            <g id="quote" transform="translate(0.000000, 1550.000000)">
                <g id="circulos-izquierda" transform="translate(64.000000, 32.000000)">
                    <path d="M134.919438,50.9311209 C134.177295,43.6247627 128.905557,37.0074497 121.387586,36.1037594 C120.35532,35.9798304 119.312161,35.9694204 118.275934,36.059145 C113.885459,35.6967766 109.486072,37.3177679 106.582358,40.9161704 C104.515844,43.4770393 103.421691,46.5014027 103.171175,49.5406375 C102.66024,53.1995173 103.289502,57.0314021 105.107479,60.3284092 C108.738483,66.9144921 116.824324,69.4029864 123.816507,67.2367075 C130.94088,65.0287884 135.683365,58.4580727 134.919438,50.9311209" id="Fill-1"></path>
                    <path d="M136.68309,97.7832252 C130.743552,95.4816449 123.387212,98.3890624 121.477932,104.713522 C119.572132,111.024954 123.529339,118.637758 130.439916,118.988031 C133.156241,119.125835 135.83281,118.063991 137.817128,116.30561 C139.133547,115.497827 140.307838,114.379358 141.205826,112.998811 C144.7774,107.506688 142.887999,100.187532 136.68309,97.7832252" id="Fill-3"></path>
                    <path d="M71.68309,34.7832252 C65.743552,32.4816449 58.3872115,35.3890624 56.4779323,41.7135225 C54.5721317,48.0249537 58.529339,55.6377575 65.439916,55.9880307 C68.1562408,56.1258349 70.8328098,55.063991 72.8171283,53.3056098 C74.133547,52.4978267 75.3078382,51.3793579 76.2058256,49.9988106 C79.7774002,44.5066878 77.8879989,37.1875322 71.68309,34.7832252" id="Fill-3"></path>
                    <path d="M190.3365,62.8219345 C184.198238,52.7832012 167.607831,52.0956368 161.61484,62.5735524 C160.934646,62.6784682 160.298665,63.0927636 159.882775,63.9281861 C154.018535,75.7119373 162.525813,90.7334387 176.096161,89.9721892 C182.255314,89.6271871 188.303692,86.3079442 191.121637,80.6537151 C193.888568,75.1019618 193.575193,68.118474 190.3365,62.8219345" id="Fill-5"></path>
                    <path d="M47.3364996,7.82193448 C41.1982383,-2.21679876 24.6078309,-2.90436318 18.6148395,7.57355245 C17.9346459,7.67846824 17.2986649,8.09276362 16.8827751,8.9281861 C11.0185347,20.7119373 19.5258131,35.7334387 33.096161,34.9721892 C39.2553139,34.6271871 45.3036925,31.3079442 48.1216373,25.6537151 C50.8885677,20.1019618 50.5751928,13.118474 47.3364996,7.82193448" id="Fill-5"></path>
                    <path d="M51.3364996,115.821934 C45.1982383,105.783201 28.6078309,105.095637 22.6148395,115.573552 C21.9346459,115.678468 21.2986649,116.092764 20.8827751,116.928186 C15.0185347,128.711937 23.5258131,143.733439 37.096161,142.972189 C43.2553139,142.627187 49.3036925,139.307944 52.1216373,133.653715 C54.8885677,128.101962 54.5751928,121.118474 51.3364996,115.821934" id="Fill-5"></path>
                    <path d="M114.392336,6.96598805 C113.982811,5.51294075 113.249614,4.17523795 112.201132,3.12687385 C111.399352,2.18701178 110.472247,1.41918894 109.480506,0.92995236 C104.437925,-1.55924033 97.2894994,1.12740648 96.1477643,6.85650854 C95.8788595,8.20789628 95.9879016,9.5895864 96.386078,10.8872119 C97.1913121,14.7654259 100.523758,18.0595863 104.485786,18.8337628 C108.263774,19.5717721 111.74276,17.7897975 113.524439,14.7321911 C115.279475,12.6335079 115.334736,9.66436481 114.392336,6.96598805" id="Fill-9"></path>
                    <path d="M104.366594,153.663493 C103.854823,150.301272 102.013832,147.094731 99.1324537,145.116611 C95.2235689,142.434521 90.2237634,142.432575 86.145444,144.372748 C85.520716,144.180093 84.7998761,144.266204 84.0706139,144.788221 C77.523108,149.472757 75.9075347,159.119622 81.0222783,165.468971 C86.0830208,171.750209 96.1049258,171.189272 101.571419,165.705898 C105.000735,162.266323 105.700272,157.707305 104.366594,153.663493" id="Fill-12"></path>
                    <path d="M156.722102,153.703682 C151.17566,148.245156 142.0517,148.949737 138.001184,154.963341 C137.765925,155.166624 137.552505,155.426154 137.375317,155.756241 C136.437757,157.500917 136.008435,159.413843 136.005457,161.323809 C135.968233,162.579028 136.121101,163.831287 136.474485,165.019403 C136.669541,166.249952 137.085959,167.44991 137.753517,168.558094 C138.715893,170.155242 140.037609,171.328063 141.548425,172.114548 C143.442902,173.406279 145.737416,174.133556 148.305407,173.979614 C158.174352,173.388517 164.038939,160.903922 156.722102,153.703682" id="Fill-14"></path>
                    <path d="M87.1393986,86.4255806 C83.6317552,84.1951717 78.4819809,84.5926209 75.4970608,87.543032 C74.6660006,88.3643937 74.049327,89.358516 73.6395439,90.4330269 C73.4571405,90.7016546 73.3132166,91.023209 73.2272621,91.4076761 C72.1888118,96.0537373 74.7934332,100.868065 79.3190378,102.505296 C83.6847271,104.084608 88.2563075,101.729372 90.1198211,97.6170708 C91.9298631,93.6216079 90.9538797,88.8507197 87.1393986,86.4255806" id="Fill-16"></path>
                    <path d="M55.1393986,167.425581 C51.6317552,165.195172 46.4819809,165.592621 43.4970608,168.543032 C42.6660006,169.364394 42.049327,170.358516 41.6395439,171.433027 C41.4571405,171.701655 41.3132166,172.023209 41.2272621,172.407676 C40.1888118,177.053737 42.7934332,181.868065 47.3190378,183.505296 C51.6847271,185.084608 56.2563075,182.729372 58.1198211,178.617071 C59.9298631,174.621608 58.9538797,169.85072 55.1393986,167.425581" id="Fill-16"></path>
                    <path d="M209.004877,108.89427 C204.771461,107.103898 200.391476,108.152411 197.029661,110.702797 C196.929505,110.744993 196.829349,110.783263 196.728216,110.838216 C188.927788,115.114209 186.248498,126.594869 192.361911,133.43793 C198.135772,139.90172 209.801238,139.549435 214.532989,132.044982 C215.809609,130.021061 216.436438,127.665953 216.496532,125.283369 C218.315459,119.169901 215.066014,111.458394 209.004877,108.89427" id="Fill-19"></path>
                    <path d="M20.4554088,60.1484069 C14.5840058,56.3847888 7.06698814,57.7310194 2.95888506,62.8976606 C2.6706058,63.0922368 2.40408346,63.3510134 2.17563575,63.6888056 C-1.70105276,69.4199155 -0.194880161,77.822251 5.09007479,82.1888579 C11.098942,87.1535152 19.8363254,85.1573802 24.378578,79.2129279 C29.2412508,72.8496921 26.9983096,64.3426608 20.4554088,60.1484069" id="Fill-21"></path>
                    <path d="M144.858677,207.657081 C143.668954,200.619515 135.042835,196.988899 129.064908,200.150785 C128.537852,200.428966 128.058982,200.751472 127.618859,201.104548 C126.70384,201.041371 125.748583,201.379672 125.070515,202.309998 C120.798438,208.173702 123.466003,217.598222 130.059904,220.306154 C137.562864,223.387541 146.21382,215.673374 144.858677,207.657081" id="Fill-23"></path>
                    <path d="M192.858677,217.657081 C191.668954,210.619515 183.042835,206.988899 177.064908,210.150785 C176.537852,210.428966 176.058982,210.751472 175.618859,211.104548 C174.70384,211.041371 173.748583,211.379672 173.070515,212.309998 C168.798438,218.173702 171.466003,227.598222 178.059904,230.306154 C185.562864,233.387541 194.21382,225.673374 192.858677,217.657081" id="Fill-23"></path>
                    <path d="M191.584483,164.1616 C186.856956,163.336059 183.285653,165.766152 181.795251,169.337993 C181.097573,169.609671 180.519713,170.191553 180.286143,171.149681 C178.215353,179.646751 187.802866,187.624981 195.542543,182.257963 C203.026404,177.069061 200.669971,165.74814 191.584483,164.1616" id="Fill-25"></path>
                </g>
            </g>
        </g>
    </g>
</svg>