<?xml version="1.0" encoding="UTF-8"?>
<svg width="225px" height="198px" viewBox="0 0 225 198" version="1.1" xmlns="http://www.w3.org/2000/svg" xmlns:xlink="http://www.w3.org/1999/xlink">
    <title>flores coral</title>
    <g id="version-1.1" stroke="none" stroke-width="1" fill="none" fill-rule="evenodd">
        <g id="Aborto-seguro-/-Aborto-con-medicamentos" transform="translate(-975.000000, -240.000000)" fill="#FC766A">
            <g id="hero" transform="translate(0.000000, 168.000000)">
                <g id="flores-coral" transform="translate(975.000000, 72.000000)">
                    <path d="M64.7272074,0.0205565751 C66.8989788,-0.137748254 68.937543,0.621125522 70.6860114,2.19823739 C75.6926303,6.70596741 78.0212903,17.9891441 79.0928685,26.5742129 C81.75504,21.3076091 85.7986198,15.5017795 91.3282005,13.3280563 C95.4852532,11.6935589 99.8445836,12.2585093 104.271011,15.0021299 C108.554364,17.6626404 111.102076,21.3630158 111.84705,26.0023367 C112.885079,32.4898665 110.088714,39.6402978 107.044682,45.1483165 C112.114451,42.768797 118.232117,40.9750054 122.987122,42.8825786 C126.597532,44.3280996 128.857121,47.5367406 129.70274,52.4184658 C132.237625,67.0398956 117.98149,75.2183188 108.944118,78.8712028 C112.675895,80.627397 116.875376,83.465011 118.830069,87.8144362 C120.7374,92.0510692 120.211478,96.8200022 117.264144,101.990634 C114.593092,106.674478 110.900785,109.437887 106.286881,110.201707 C99.9501627,111.251466 93.2483582,108.170459 88.6127462,105.2903 C89.915217,111.231678 90.8437208,119.646569 87.5816234,125.197132 C85.7423768,128.325632 82.8749675,130.216385 79.0603068,130.819922 C78.2995454,130.93964 77.5535848,131 76.8234118,131 C73.940215,131.001973 71.2938311,130.065995 68.9276758,128.207892 C64.0039414,124.341297 61.3190754,117.056306 59.8972114,111.239593 C57.3850215,116.205418 53.4164324,122.016195 47.8809314,124.303699 C43.8728735,125.960953 39.6595777,125.602788 35.3663576,123.234152 C31.1698361,120.921913 28.4987842,117.510443 27.4202988,113.094728 C26.0102755,107.315612 27.6669789,100.818189 29.7302111,95.6792181 C24.6446546,98.7374695 18.1836099,101.541444 12.9668196,100.205747 C10.7052566,99.6378282 7.64346348,98.0191613 5.90486228,93.5381452 C4.5461484,90.0346615 4.65962123,86.507432 6.24133391,83.0504503 C8.5769009,77.9461089 13.8598015,73.8420562 18.7736687,70.9371626 C13.5312236,70.4731316 7.69674638,69.075102 3.95115604,65.4944447 C0.961393476,62.6350637 -0.342064066,58.8505889 0.0763053493,54.2399607 C0.454219232,50.0735755 2.30037295,46.8609768 5.55852344,44.688243 C12.0886385,40.3328814 23.1024107,41.4499199 30.488999,42.9132501 C25.6264413,36.6968174 19.2167061,26.7829774 20.317886,18.8489372 C20.8418345,15.0812823 22.8873057,12.1338443 26.4049636,10.0936908 C30.0765499,7.96251199 33.7580035,7.6211672 37.3536123,9.10131736 C43.3035358,11.5451482 47.7289765,18.7767107 50.5628372,25.0050163 C52.1376429,14.5173213 55.8891535,0.652786488 64.7272074,0.0205565751 Z M82.5286287,101.469217 C80.4091534,102.517987 78.194953,103.378769 75.8870142,103.970434 C73.0827551,104.689731 70.2094255,105.035033 67.3370827,105.035033 C66.0948018,105.035033 64.8594279,104.896517 63.6240541,104.770862 C64.4834875,110.470826 66.9078593,120.37675 71.9588806,124.337339 C73.8356227,125.809574 75.9077353,126.335938 78.2916516,125.960953 C80.6242585,125.590916 82.2789885,124.524337 83.3535269,122.697895 C86.5347132,117.288817 84.1626375,106.630944 82.5286287,101.469217 Z M37.5509564,90.8499313 C35.3160348,94.7254315 30.3597387,104.461178 32.1910916,111.934156 C32.9390256,114.995375 34.7506441,117.279912 37.7275793,118.923314 C40.6976075,120.55979 43.4022079,120.828908 46.0061628,119.757383 C51.7863704,117.372916 55.989799,108.704737 57.8083245,103.745839 C49.9224557,101.684908 42.7016364,97.1405695 37.5509564,90.8499313 Z M101.13028,81.3120654 C98.3112202,88.1656751 93.5167462,94.2386441 87.4908452,98.5178215 C90.7322214,101.010133 98.7453771,106.481544 105.493557,105.345707 C108.620474,104.82429 111.075434,102.9276 113.002499,99.5497711 C115.155523,95.7722221 115.597573,92.5962315 114.356279,89.8367804 C112.058208,84.7294709 104.261144,82.014543 101.13028,81.3120654 Z M76.8283454,39.5858805 C66.0809877,36.4326462 54.3626972,38.2017027 46.2479093,44.2172862 C34.6845338,53.5048326 31.1609556,69.1295193 37.6703495,82.2322122 C44.2093451,95.3952588 60.4616155,102.851416 74.6703881,99.2034793 C88.8742271,95.5614788 99.5594214,81.1972944 98.9940307,66.503638 C98.7749788,60.9055834 97.0344041,55.4965053 94.0880572,51.2747134 C90.33852,45.9022432 84.2100001,41.7506991 76.8283454,39.5858805 Z M29.7035697,71.0489654 C25.9412051,72.5558295 14.0403713,77.799677 10.6993363,85.1084131 C9.6790675,87.3355641 9.60802364,89.5102767 10.478311,91.7552371 C11.5390353,94.489953 13.0871995,95.1647274 14.1607512,95.4338456 C20.0327238,96.9169639 30.5195874,89.559747 34.4171326,86.3352755 C34.0431656,85.6951303 33.608022,85.0945614 33.2754972,84.4286917 C31.1372743,80.1237897 30.0311608,75.587367 29.7035697,71.0489654 Z M65.8368594,48.0889628 C73.2662136,47.5537704 79.6229855,50.895267 83.8365609,57.4607547 C87.7952751,63.630279 86.9116248,72.4579914 81.7327253,78.450764 C77.4817571,83.369202 70.6733198,86.2416646 63.3630321,86.2416646 C63.0264971,86.2416646 62.6870101,86.2347525 62.347523,86.2219158 C58.875899,86.0974984 52.4905905,85.1288199 48.7522969,80.0760901 C44.419655,74.2225465 43.6098062,67.5563399 46.4723216,61.306833 C49.8258632,53.9859538 57.6094647,48.6745147 65.8368594,48.0889628 Z M79.7204035,60.1179554 C76.5203691,55.1294091 71.7242536,52.5976133 66.1812666,52.987652 C59.7841498,53.4418744 53.5080676,57.7076146 50.9200939,63.3597205 C49.4460313,66.5728498 48.5554928,71.5752202 52.6814904,77.1503057 C54.5216086,79.6347044 58.108363,81.1553618 62.5246467,81.3163145 C68.7426717,81.546388 74.5493762,79.2683642 78.0337925,75.2326975 C81.7592938,70.9225224 82.4864849,64.4241806 79.7204035,60.1179554 Z M121.16761,47.4526411 C115.739661,45.2591298 105.386992,51.3123108 101.198364,54.2498548 C102.762316,57.9759547 103.732262,62.0295477 103.897044,66.3116934 C104.020384,69.5143979 103.675032,72.7042403 102.931045,75.7981103 C109.238161,73.760925 127.203378,66.7282329 124.866824,53.2594602 C124.326101,50.130961 123.114409,48.2303136 121.16761,47.4526411 Z M35.3180083,49.1277041 C28.9595825,47.3052198 14.733049,44.480468 8.27397776,48.7873487 C6.28770976,50.1141411 5.20330413,52.0415024 4.96353109,54.6871718 C4.68428924,57.7652114 5.46083813,60.1368156 7.3336333,61.9315966 C12.556344,66.931061 25.1784703,66.4551571 29.6719946,65.8446941 C30.1199656,59.9379452 32.0312429,54.1993951 35.3180083,49.1277041 Z M101.68679,19.1883032 C98.608223,17.2797406 95.8088975,16.8523176 93.1190979,17.9090023 C86.9126271,20.3508543 82.435877,30.20533 80.5492677,35.7450096 C87.9259888,38.3847426 94.1472605,42.773744 98.1089425,48.4539192 C98.2865522,48.7072069 98.4128524,48.9951238 98.5825683,49.254348 C101.676923,45.0246408 108.300777,34.8525661 106.999293,26.7760516 C106.485211,23.5684 104.747597,21.0869718 101.68679,19.1883032 Z M35.4906843,13.6515918 C33.3544348,12.7769576 31.1856236,13.0055102 28.8648574,14.3511013 C26.693086,15.6125929 25.486327,17.3064546 25.1784703,19.5286586 C24.0841974,27.4231226 33.9592944,39.909416 38.53669,44.824781 C39.9447399,43.2268916 41.4998111,41.7210169 43.2186779,40.3447543 C43.2423592,40.3249662 43.2630803,40.3081463 43.2877483,40.2893476 C45.2424413,38.8378902 47.4082924,37.650604 49.6708421,36.632506 C49.6442006,36.5622583 49.5958513,36.5068516 49.5761169,36.4326462 C48.1098505,31.1007416 42.717424,16.6178285 35.4906843,13.6515918 Z M67.4081265,5.85705776 C66.3957515,4.94680499 65.5866408,4.88941949 65.0774931,4.92701689 C58.9312123,5.369281 55.2398915,22.3276859 54.4603825,34.8397038 C60.8908388,32.9420247 67.9833845,32.6560866 74.8874665,34.0877559 C74.2766867,25.5630408 72.2371358,10.2054935 67.4081265,5.85705776 Z" id="Combined-Shape"></path>
                    <path d="M178.304848,105.014594 C179.8585,104.902209 181.316858,105.440952 182.567685,106.560581 C186.149343,109.760725 187.815231,117.770919 188.581821,123.865662 C190.486298,120.126776 193.379013,116.00508 197.33479,114.461902 C200.308681,113.301534 203.427279,113.702606 206.593877,115.650367 C209.658122,117.539126 211.480716,120.16611 212.013659,123.459674 C212.756249,128.065325 210.755772,133.141585 208.578118,137.051857 C212.204953,135.36258 216.581437,134.089125 219.983095,135.443357 C222.565926,136.469566 224.182402,138.747456 224.787345,142.213108 C226.600762,152.593207 216.402143,158.399263 209.936946,160.992532 C212.606602,162.239296 215.610846,164.253785 217.009203,167.341545 C218.373678,170.349231 217.997442,173.734809 215.888965,177.405563 C213.978135,180.730734 211.336715,182.692544 208.035999,183.234798 C203.502809,183.980047 198.708441,181.792766 195.392195,179.748074 C196.323963,183.965999 196.9882,189.939929 194.654546,193.880405 C193.338777,196.1014 191.287477,197.443691 188.558527,197.872156 C188.01429,197.957147 187.480641,198 186.958287,198 C184.895692,198.001398 183.00251,197.336926 181.309799,196.017815 C177.787435,193.272827 175.866723,188.10104 174.849544,183.971618 C173.052362,187.496974 170.213294,191.622182 166.253282,193.246136 C163.385979,194.422659 160.371852,194.16839 157.300548,192.486839 C154.298421,190.845325 152.387592,188.423443 151.61606,185.288622 C150.607351,181.185891 151.792531,176.573216 153.268536,172.924939 C149.630407,175.096064 145.008275,177.086672 141.276263,176.138429 C139.658376,175.73525 137.468016,174.586121 136.224248,171.404941 C135.252245,168.917735 135.333421,166.413672 136.464954,163.959479 C138.135783,160.335786 141.915089,157.422222 145.430394,155.359969 C141.680029,155.030543 137.506134,154.038048 134.826596,151.496055 C132.687766,149.466113 131.755293,146.779425 132.054588,143.506231 C132.324941,140.548415 133.645651,138.267716 135.976482,136.72524 C140.648026,133.633266 148.527109,134.426278 153.811361,135.465131 C150.332762,131.051938 145.747336,124.013869 146.535103,118.381306 C146.909928,115.706559 148.373226,113.614103 150.889705,112.16575 C153.516301,110.652776 156.149956,110.410447 158.7222,111.46124 C162.978683,113.196174 166.144575,118.330031 168.171876,122.751652 C169.298468,115.30619 171.982241,105.463429 178.304848,105.014594 Z M191.039711,177.035397 C189.523471,177.779943 187.939466,178.391033 186.288402,178.811069 C184.282279,179.321716 182.226743,179.566854 180.171913,179.566854 C179.283204,179.566854 178.399437,179.468518 177.515669,179.379313 C178.130495,183.425851 179.864853,190.458302 183.478276,193.270017 C184.820869,194.315192 186.303226,194.68887 188.008643,194.422659 C189.677354,194.159961 190.861123,193.402771 191.629831,192.106137 C193.905603,188.266105 192.208656,180.699829 191.039711,177.035397 Z M158.863376,169.496515 C157.264548,172.247824 153.71889,179.159461 155.029012,184.464704 C155.564072,186.637936 156.860076,188.259783 158.98973,189.426473 C161.114442,190.588246 163.049272,190.779299 164.912101,190.018598 C169.047173,188.325809 172.054241,182.172064 173.355186,178.651624 C167.713757,177.18852 162.548094,173.962387 158.863376,169.496515 Z M204.347047,162.725358 C202.330334,167.590898 198.900441,171.902242 194.589605,174.940131 C196.908435,176.709482 202.640924,180.593766 207.468468,179.787408 C209.705416,179.417242 211.461657,178.070738 212.840249,175.672737 C214.380489,172.990965 214.696726,170.736254 213.808723,168.777255 C212.164718,165.151455 206.586818,163.224064 204.347047,162.725358 Z M186.961816,133.102953 C179.273322,130.864397 170.890237,132.120292 165.085043,136.390897 C156.812782,142.984346 154.292068,154.07668 158.948789,163.378592 C163.626685,172.72335 175.25331,178.016653 185.418047,175.426896 C195.579255,172.841354 203.223278,162.643879 202.818807,152.212505 C202.6621,148.238314 201.41692,144.398281 199.309149,141.401132 C196.626787,137.587088 192.242539,134.639809 186.961816,133.102953 Z M153.249477,155.439341 C150.557939,156.509099 142.044266,160.23183 139.654141,165.420475 C138.924256,167.001582 138.873432,168.545462 139.496022,170.139213 C140.254848,172.080652 141.362381,172.55969 142.130384,172.750744 C146.331102,173.803645 153.833243,168.580582 156.621487,166.291454 C156.353957,165.836999 156.042662,165.410641 155.804779,164.937925 C154.275127,161.881773 153.48383,158.661259 153.249477,155.439341 Z M179.196451,138.992595 C184.525879,138.611893 189.085893,140.988821 192.108491,145.659093 C194.948265,150.047702 194.31438,156.327177 190.59931,160.590056 C187.549889,164.088721 182.665874,166.132008 177.421857,166.132008 C177.180445,166.132008 176.936915,166.127092 176.693385,166.11796 C174.203024,166.029458 169.622539,165.340401 166.940884,161.746209 C163.832874,157.58237 163.251931,152.840453 165.305349,148.39495 C167.711004,143.18734 173.294551,139.409119 179.196451,138.992595 Z M189.155776,147.549257 C186.86024,144.000722 183.419758,142.199763 179.443511,142.477212 C174.854555,142.800317 170.352424,145.834694 168.495947,149.855244 C167.438532,152.14086 166.799707,155.699229 169.759481,159.664992 C171.079485,161.432236 173.652434,162.513935 176.820444,162.628427 C181.280928,162.792086 185.446353,161.171644 187.94589,158.300927 C190.618369,155.234942 191.140017,150.612433 189.155776,147.549257 Z M218.681444,138.687752 C214.798373,137.130527 207.392232,141.427823 204.395753,143.513255 C205.51458,146.158501 206.208464,149.036243 206.326347,152.076239 C206.414582,154.349915 206.167523,156.614459 205.635286,158.810871 C210.1473,157.364625 222.99934,152.371951 221.327805,142.81015 C220.94098,140.589155 220.074154,139.23984 218.681444,138.687752 Z M157.26596,139.876919 C152.71724,138.583094 142.539797,136.577736 137.919076,139.635293 C136.498131,140.577214 135.722364,141.945493 135.550834,143.823716 C135.351068,146.00889 135.9066,147.692547 137.246368,148.966705 C140.982615,152.515943 150.01229,152.178088 153.226888,151.744705 C153.54736,147.551365 154.914658,143.477432 157.26596,139.876919 Z M204.745165,118.62223 C202.542806,117.267296 200.540211,116.963859 198.61597,117.714024 C194.175956,119.447553 190.973358,126.443478 189.623707,130.376228 C194.9009,132.250236 199.351502,135.366092 202.185628,139.398583 C202.312687,139.578398 202.403041,139.782797 202.524453,139.966826 C204.738107,136.964057 209.476709,129.742661 208.545648,124.008952 C208.177882,121.731764 206.934819,119.97014 204.745165,118.62223 Z M157.38949,114.691588 C155.86125,114.070664 154.309715,114.232919 152.649475,115.188186 C151.095823,116.083749 150.232526,117.286261 150.01229,118.863857 C149.229464,124.468323 156.293957,133.332638 159.568555,136.822172 C160.575852,135.687793 161.688326,134.618736 162.917977,133.641695 C162.934918,133.627647 162.949742,133.615706 162.967389,133.602361 C164.365746,132.571937 165.915163,131.729054 167.533756,131.006282 C167.514697,130.956412 167.480109,130.917077 167.465991,130.864397 C166.417047,127.079152 162.559388,116.797389 157.38949,114.691588 Z M180.222737,109.158064 C179.498499,108.511854 178.919674,108.471115 178.555437,108.497806 C174.158483,108.81178 171.517769,120.850952 170.96012,129.73353 C175.560369,128.386322 180.634267,128.183328 185.573341,129.199704 C185.136399,123.147807 183.677336,112.245121 180.222737,109.158064 Z" id="Combined-Shape"></path>
                    <path d="M188.874096,6.00941522 C189.876452,5.9369092 190.817328,6.28448496 191.624313,7.00682624 C193.93506,9.07143531 195.009826,14.2393023 195.504401,18.1713947 C196.733095,15.7592098 198.599363,13.1000513 201.151477,12.104453 C203.070117,11.3558283 205.082115,11.6145841 207.125082,12.8712042 C209.102014,14.0897586 210.277881,15.7845869 210.621715,17.9094666 C211.100806,20.8808542 209.810176,24.1558607 208.405238,26.6786172 C210.745131,25.5887611 213.568669,24.7671772 215.763287,25.6408748 C217.42963,26.3029454 218.472517,27.7725519 218.862803,30.0084565 C220.03275,36.7052942 213.452995,40.4511368 209.281901,42.1242133 C211.004259,42.928577 212.942481,44.2282475 213.844647,46.2203506 C214.724954,48.1607931 214.48222,50.3450371 213.121913,52.7132651 C211.889119,54.8585372 210.184978,56.1242205 208.055483,56.474062 C205.130844,56.9548676 202.037704,55.5437191 199.898191,54.2245626 C200.499331,56.9458044 200.927871,60.7999528 199.422288,63.3421953 C198.573405,64.7750956 197.249985,65.6410895 195.489372,65.9175187 C195.138252,65.9723514 194.793962,66 194.456959,66 C193.126253,66.0009006 191.904845,65.5722087 190.812773,64.7211693 C188.540281,62.9502096 187.301112,59.6135729 186.644867,56.9494297 C185.485395,59.2238531 183.653738,61.8852774 181.098891,62.9329894 C179.249019,63.6920369 177.30442,63.527992 175.322934,62.4431206 C173.386078,61.3840795 172.153285,59.8215746 171.655523,57.7991097 C171.004743,55.1521866 171.769375,52.1762674 172.721636,49.8225405 C170.374456,51.2232663 167.392435,52.5075293 164.984686,51.8957597 C163.940888,51.6356443 162.527752,50.8942702 161.725321,48.8418965 C161.098222,47.2372476 161.150594,45.6217227 161.880616,44.0383724 C162.95857,41.7005062 165.396831,39.8207875 167.66477,38.4903019 C165.24518,38.2777687 162.552344,37.6374498 160.82361,35.9974542 C159.44372,34.6878141 158.842124,32.9544669 159.035218,30.8427289 C159.20964,28.934461 160.061711,27.4630418 161.565472,26.4678966 C164.579372,24.4730746 169.662651,24.9846952 173.071846,25.6549228 C170.827588,22.8077018 167.869249,18.267012 168.377486,14.6331006 C168.619308,12.9074572 169.563372,11.5574857 171.186906,10.6230643 C172.881485,9.64695189 174.580617,9.49061077 176.240129,10.1685421 C178.986247,11.2878539 181.028758,14.6000197 182.336694,17.4526787 C183.063527,12.6491545 184.794994,6.29898616 188.874096,6.00941522 Z M197.090136,52.4744484 C196.111917,52.9548008 195.089978,53.3490524 194.024776,53.6200436 C192.730502,53.9494929 191.40435,54.1076466 190.078654,54.1076466 C189.505293,54.1076466 188.935121,54.0442039 188.364948,53.9866522 C188.76161,56.5973223 189.88055,61.1343868 192.211791,62.9483969 C193.07798,63.622703 194.034339,63.8637855 195.134608,63.6920369 C196.211196,63.522554 196.974918,63.0340447 197.470859,62.1975064 C198.939098,59.7200662 197.844294,54.838598 197.090136,52.4744484 Z M176.331211,47.6106536 C175.299708,49.3856917 173.012187,53.8448123 173.857427,57.2675499 C174.202627,58.6696351 175.038759,59.7159877 176.412729,60.4686909 C177.783511,61.2182219 179.031788,61.3414822 180.233614,60.850707 C182.901402,59.758585 184.841446,55.7884269 185.680765,53.5171757 C182.041133,52.5732379 178.708448,50.4918618 176.331211,47.6106536 Z M205.675514,43.2421656 C204.374409,46.3812233 202.161575,49.1627357 199.38039,51.1226642 C200.87641,52.2641809 204.574789,54.7701704 207.689334,54.2499397 C209.132527,54.011123 210.265585,53.1424102 211.155,51.5953129 C212.148703,49.8651378 212.352726,48.4104857 211.779821,47.146615 C210.719173,44.8073894 207.120528,43.5639111 205.675514,43.2421656 Z M194.459236,24.1309368 C189.498917,22.6867074 184.090476,23.4969622 180.345189,26.2521912 C175.008246,30.5060291 173.381979,37.6623738 176.386315,43.6636069 C179.404313,49.6924829 186.905361,53.1075167 193.463256,51.4367059 C200.018874,49.7686142 204.950502,43.1895987 204.689553,36.4596801 C204.588452,33.8956857 203.78511,31.4182455 202.425257,29.4846004 C200.694702,27.0239272 197.866154,25.1224567 194.459236,24.1309368 Z M172.70934,38.5415093 C170.972864,39.231676 165.480171,41.6334381 163.938155,44.9809507 C163.467262,46.0010198 163.434472,46.9970714 163.836144,48.0252974 C164.325709,49.277839 165.040246,49.586896 165.535731,49.7101562 C168.245873,50.389447 173.085963,47.0197295 174.88483,45.5428724 C174.71223,45.2496762 174.511395,44.9746064 174.357922,44.669628 C173.37105,42.6979172 172.860536,40.6201664 172.70934,38.5415093 Z M189.682934,27.8435948 C193.19718,27.5991052 196.204071,29.1255864 198.197184,32.1248694 C200.069741,34.9432661 199.651756,38.9759913 197.202024,41.7136434 C195.191223,43.9605118 191.970685,45.2727263 188.51276,45.2727263 C188.353572,45.2727263 188.192987,45.2695687 188.032402,45.2637046 C186.390249,45.2068675 183.369859,44.7643504 181.601565,42.4561339 C179.552131,39.7820853 179.169055,36.7367914 180.523087,33.8818565 C182.109385,30.5374913 185.791198,28.1110899 189.682934,27.8435948 Z M196.250152,33.3387467 C194.736466,31.059851 192.467799,29.9032618 189.845846,30.0814415 C186.819871,30.2889419 183.851148,32.2376414 182.62698,34.8196681 C181.929716,36.2875079 181.508472,38.5727188 183.460159,41.1195607 C184.330575,42.2544977 186.027187,42.9491729 188.116185,43.0227003 C191.057446,43.1278037 193.804144,42.0871441 195.452348,40.2435481 C197.214591,38.2745498 197.558568,35.3059408 196.250152,33.3387467 Z M214.923512,27.7340331 C212.418305,26.7293715 207.64015,29.5018206 205.706937,30.8472605 C206.428761,32.5538711 206.876428,34.4104785 206.952482,36.3717665 C207.009408,37.838654 206.850015,39.2996504 206.506636,40.7166901 C209.417613,39.7836282 217.709251,36.562548 216.630842,30.3936447 C216.381278,28.9607444 215.822035,28.0902189 214.923512,27.7340331 Z M175.300619,28.5012375 C172.365961,27.6665118 165.799869,26.3727325 162.818759,28.3453495 C161.90202,28.9530406 161.401525,29.8358015 161.290861,31.0475584 C161.16198,32.4573475 161.520387,33.5435784 162.384754,34.3656154 C164.795236,36.6554463 170.620832,36.4374751 172.694767,36.1578737 C172.901523,33.4524927 173.783651,30.8241492 175.300619,28.5012375 Z M205.932365,14.7885354 C204.511488,13.9143846 203.219491,13.7186184 201.978045,14.2025961 C199.11352,15.3210015 197.047328,19.8345016 196.176585,22.3717593 C199.581226,23.5807973 202.452582,25.5910269 204.28105,28.1926337 C204.363024,28.3086433 204.421316,28.4405137 204.499647,28.5592423 C205.927811,26.6219719 208.984974,21.9630066 208.384289,18.2638398 C208.147021,16.7946865 207.345045,15.6581546 205.932365,14.7885354 Z M175.380316,12.2526372 C174.394355,11.8520414 173.393365,11.956722 172.322242,12.5730232 C171.319886,13.1508056 170.76292,13.92662 170.620832,14.9444234 C170.115783,18.5602082 174.67352,24.279121 176.786165,26.5304331 C177.436034,25.7985754 178.153759,25.1088618 178.947082,24.4785125 C178.958012,24.4694493 178.967576,24.4617455 178.978961,24.4531354 C179.881127,23.7883458 180.88075,23.2445506 181.925004,22.7782462 C181.912708,22.7460717 181.890393,22.7206946 181.881285,22.6867074 C181.204546,20.2446138 178.715734,13.6112188 175.380316,12.2526372 Z M190.111443,8.68262175 C189.644193,8.2657121 189.270757,8.23942867 189.035766,8.25664885 C186.199021,8.45921256 184.495335,16.2264205 184.135561,21.9571155 C187.103464,21.0879495 190.376947,20.9569855 193.563446,21.6127119 C193.281548,17.7082624 192.340217,10.6742716 190.111443,8.68262175 Z" id="Combined-Shape"></path>
                </g>
            </g>
        </g>
    </g>
</svg>