<?xml version="1.0" encoding="UTF-8"?>
<svg width="206px" height="181px" viewBox="0 0 206 181" version="1.1" xmlns="http://www.w3.org/2000/svg" xmlns:xlink="http://www.w3.org/1999/xlink">
    <title>flores purpura</title>
    <g id="version-1.1" stroke="none" stroke-width="1" fill="none" fill-rule="evenodd">
        <g id="Home" transform="translate(-76.000000, -1054.000000)" fill="#A684AE">
            <g id="flores-purpura" transform="translate(76.000000, 1054.000000)">
                <path d="M59.2502899,0.0188304509 C61.238296,-0.12618161 63.1043663,0.568969958 64.7048874,2.01365262 C69.2878693,6.14287106 71.4194888,16.4786057 72.400395,24.342791 C74.8373058,19.518421 78.5387366,14.2001037 83.6004297,12.2089068 C87.4057318,10.7116573 91.3961957,11.2291691 95.4480792,13.7424094 C99.3689946,16.1795183 101.701131,19.5691753 102.383068,23.818935 C103.333265,29.7617105 100.773515,36.311724 97.9870548,41.3572374 C102.627843,39.1775249 108.227861,37.534357 112.580519,39.2817523 C115.885433,40.6058937 117.953826,43.5451069 118.727893,48.0169163 C121.048287,61.4105928 107.998441,68.9022784 99.7257699,72.2484317 C103.14178,73.8571593 106.985921,76.4565005 108.775217,80.4407069 C110.521158,84.3215922 110.039737,88.6900805 107.341793,93.4265369 C104.896754,97.7170813 101.516872,100.248448 97.2933753,100.948131 C91.4928412,101.909743 85.3581125,99.0874453 81.1147446,96.4491321 C82.3070063,101.891616 83.1569444,109.599913 80.1708707,114.684399 C78.4872526,117.5502 75.8624703,119.282187 72.3705885,119.835046 C71.6741993,119.944711 70.9913584,120 70.3229693,120 C67.6837353,120.00181 65.2612762,119.144426 63.095334,117.442347 C58.5882233,113.900427 56.1305383,107.227154 54.8289859,101.898867 C52.5293658,106.447714 48.8965804,111.770563 43.829468,113.865987 C40.1605534,115.384082 36.3037673,115.055992 32.3738196,112.886249 C28.5323884,110.768167 26.0873486,107.643157 25.1001197,103.598227 C23.809406,98.3043801 25.3259269,92.3525414 27.2145779,87.6450873 C22.5593377,90.4465391 16.6449968,93.0150652 11.8696272,91.791526 C9.79942722,91.2712952 6.99670888,89.7885469 5.40522008,85.6837992 C4.1614743,82.474501 4.26534559,79.243451 5.71322104,76.0767502 C7.85116313,71.4010175 12.6870491,67.6415798 17.1851275,64.9806085 C12.3862739,64.5555419 7.04548322,63.2749041 3.61682746,59.9949126 C0.880044797,57.3756322 -0.313120184,53.9089376 0.0698487428,49.6854614 C0.415785297,45.8689252 2.10572601,42.9260867 5.08818685,40.9357961 C11.0657537,36.9461518 21.1475914,37.9693932 27.9091607,39.3098484 C23.4580501,33.615406 17.5906771,24.5340257 18.5986802,17.2662025 C19.0782946,13.8149154 20.9506875,11.1149721 24.1706975,9.24612916 C27.5316111,7.29390429 30.901557,6.98122203 34.192922,8.3370848 C39.6393905,10.5757085 43.6903708,17.2000407 46.2844433,22.905359 C47.7259961,13.2983099 51.1600713,0.59797237 59.2502899,0.0188304509 Z M75.545437,92.9489035 C73.605302,93.9096084 71.578457,94.6981115 69.4658053,95.240094 C66.8988296,95.8989926 64.268628,96.2153001 61.6393295,96.2153001 C60.5021647,96.2153001 59.3713225,96.0884146 58.2404803,95.9733113 C59.0271924,101.194652 61.2464251,110.268782 65.8700523,113.896802 C67.5879931,115.245414 69.4847731,115.727579 71.6669734,115.384082 C73.8022058,115.045116 75.3169202,114.068098 76.3005361,112.395021 C79.2125452,107.44014 77.0411836,97.677203 75.545437,92.9489035 Z M34.3735678,83.2213131 C32.327755,86.7713897 27.7908377,95.6896314 29.46723,102.535107 C30.1518773,105.339278 31.810205,107.431983 34.5352457,108.93739 C37.2539638,110.436452 39.7297134,110.682972 42.1133336,109.701422 C47.4044468,107.517178 51.2522006,99.576861 52.9168509,95.0343582 C45.6982479,93.1464824 39.088421,88.9837299 34.3735678,83.2213131 Z M92.5731026,74.4843365 C89.9925785,80.7624524 85.6037907,86.3254776 80.0877737,90.2453349 C83.0548796,92.5283685 90.3899991,97.5403478 96.5671795,96.4998863 C99.4295109,96.0222528 101.676744,94.2848271 103.440749,91.1906322 C105.411594,87.7302819 105.81624,84.8209774 104.679979,82.293236 C102.576359,77.6147843 95.439047,75.1278275 92.5731026,74.4843365 Z M70.3274854,36.2618761 C60.4895195,33.3734171 49.7627766,34.9939269 42.3346246,40.5043853 C31.7496887,49.0120616 28.5242593,63.324752 34.4828584,75.3272191 C40.4685543,87.3849719 55.3456326,94.21504 68.3521245,90.8734183 C81.3541002,87.5372346 91.1351627,74.3792027 90.6176127,60.9193645 C90.4170959,55.7913755 88.8238007,50.8364946 86.1267601,46.9692042 C82.6944914,42.0478574 77.0845386,38.2449161 70.3274854,36.2618761 Z M27.1901907,65.0830233 C23.74618,66.4633568 12.8523399,71.2668814 9.79400785,77.961907 C8.86006948,80.0020454 8.79503702,81.9941486 9.59168465,84.0506009 C10.5626554,86.5556842 11.9798211,87.1737981 12.9625338,87.4203186 C18.3376472,88.7789004 27.9371607,82.0394648 31.5049137,79.0857504 C31.1625901,78.4993579 30.7642663,77.9492184 30.4598782,77.3392614 C28.5025818,73.3958397 27.4900626,69.2403378 27.1901907,65.0830233 Z M60.2660482,44.0509594 C67.0667647,43.5607068 72.885656,46.6216197 76.7426981,52.6358071 C80.3664441,58.2872798 79.5575642,66.3737342 74.8168793,71.863297 C70.9256084,76.3687365 64.6932696,79 58.0015448,79 C57.6934858,79 57.3827246,78.9936683 57.0719634,78.9819095 C53.8940921,78.8679393 48.049079,77.9806002 44.6271025,73.3521453 C40.6610688,67.9901205 39.9197457,61.8836716 42.5400482,56.1589323 C45.6098286,49.4527832 52.7348177,44.5873428 60.2660482,44.0509594 Z M72.9748309,55.0698841 C70.0455687,50.5002233 65.6552783,48.181021 60.5813132,48.5383084 C54.725491,48.9543899 48.9804619,52.8619383 46.6114705,58.03944 C45.2621363,60.9827646 44.4469511,65.5650888 48.2238259,70.6720374 C49.9082417,72.9478226 53.1915016,74.3407912 57.2340997,74.4882288 C62.9259841,74.6989832 68.2413521,72.6122438 71.4309332,68.9154497 C74.8411997,64.9671977 75.5068593,59.014518 72.9748309,55.0698841 Z M110.914966,43.4680692 C105.946305,41.4587459 96.4696308,47.0036446 92.6354254,49.6945246 C94.0670427,53.107746 94.9549164,56.8209611 95.1057556,60.7435374 C95.2186592,63.6773126 94.9025292,66.5993056 94.2214948,69.4333851 C99.994932,67.5672611 116.440015,61.1251003 114.30117,48.7872929 C113.806201,45.9214921 112.697036,44.180441 110.914966,43.4680692 Z M32.3295614,45.0024781 C26.5091563,43.3330268 13.4864064,40.7454678 7.57387195,44.6907022 C5.75567278,45.9060845 4.76302455,47.6716064 4.54354,50.0951204 C4.28792631,52.9146987 4.99876721,55.0871606 6.7130951,56.7312349 C11.4938841,61.310897 23.0479843,60.8749545 27.1612874,60.3157518 C27.5713532,54.9049892 29.320907,49.648302 32.3295614,45.0024781 Z M93.0825235,17.5770721 C90.2644503,15.8287704 87.7019908,15.4372378 85.2397896,16.4051934 C79.5584817,18.6420044 75.4605335,27.6690052 73.7335605,32.743521 C80.4860975,35.1615971 86.1809538,39.1820565 89.8074166,44.3852705 C89.9699978,44.6172898 90.085611,44.8810305 90.2409664,45.1184878 C93.0734913,41.2439468 99.1368648,31.9260155 97.9455063,24.5276814 C97.4749242,21.5893745 95.8843387,19.3163105 93.0825235,17.5770721 Z M32.4876264,12.5052752 C30.5321365,11.7040836 28.5468401,11.9134448 26.4224464,13.1460473 C24.4344402,14.3016121 23.3297917,15.8532412 23.0479843,17.888848 C22.0463038,25.1204182 31.0858156,36.5582445 35.2758931,41.060869 C36.5648003,39.5971535 37.9882886,38.2177263 39.5617128,36.9570277 C39.5833903,36.9389012 39.6023581,36.9234937 39.6249388,36.9062735 C41.4142347,35.5766942 43.3968215,34.4891037 45.4679246,33.5564949 C45.4435375,33.4921458 45.3992793,33.4413916 45.3812147,33.3734171 C44.039017,28.4892297 39.1028727,15.2224387 32.4876264,12.5052752 Z M61.704362,5.36524388 C60.7776494,4.53142453 60.037002,4.47885765 59.570936,4.51329802 C53.9447251,4.91842546 50.5657469,20.4528425 49.8521963,31.9142333 C55.7385371,30.1759012 62.2309442,29.9139732 68.5508348,31.225426 C67.9917363,23.4165265 66.1247627,9.34854393 61.704362,5.36524388 Z" id="Combined-Shape"></path>
                <path d="M163.321636,96.0133382 C164.74164,95.9106214 166.074547,96.4030204 167.217777,97.4263372 C170.491335,100.3512 172.013921,107.672345 172.714568,113.24281 C174.455218,109.825548 177.099098,106.058407 180.714593,104.647975 C183.432666,103.587424 186.282997,103.953995 189.177199,105.734206 C191.977853,107.460492 193.643665,109.861499 194.130763,112.871745 C194.809475,117.081211 192.981082,121.720804 190.990753,125.294709 C194.305602,123.750746 198.305615,122.586836 201.414657,123.824574 C203.775309,124.762507 205.252733,126.84445 205.805638,130.011982 C207.463062,139.499169 198.141743,144.805779 192.232693,147.175971 C194.6727,148.315487 197.418515,150.156687 198.696584,152.978833 C199.943684,155.727793 199.599812,158.822139 197.67271,162.177129 C195.926253,165.216264 193.512052,167.009316 190.495268,167.504925 C186.352029,168.186066 181.97008,166.186939 178.939103,164.318134 C179.790719,168.173226 180.397817,173.63327 178.264908,177.234781 C177.062323,179.264723 175.187479,180.491547 172.693278,180.883155 C172.195857,180.960835 171.708113,181 171.230692,181 C169.345525,181.00128 167.615197,180.393966 166.068096,179.188327 C162.848731,176.679467 161.093242,171.952565 160.163561,168.178362 C158.520976,171.400462 155.926129,175.170813 152.306763,176.655072 C149.68611,177.730389 146.931262,177.497993 144.124157,175.961091 C141.380277,174.460783 139.63382,172.247234 138.928657,169.382075 C138.006719,165.632268 139.089948,161.416382 140.438984,158.081935 C137.113813,160.066297 132.889283,161.88567 129.478305,161.018996 C127.999591,160.650499 125.997649,159.600219 124.860871,156.69269 C123.972482,154.419437 124.046675,152.130776 125.080872,149.887697 C126.607974,146.57572 130.062178,143.912785 133.275091,142.02793 C129.847339,141.726841 126.032488,140.819723 123.583448,138.496395 C121.628603,136.641072 120.776343,134.185497 121.049892,131.193868 C121.296989,128.490488 122.50409,126.405977 124.634419,124.996188 C128.90411,122.17019 136.105422,122.894986 140.935115,123.844475 C137.75575,119.810912 133.564769,113.378268 134.284772,108.230226 C134.627353,105.785565 135.964777,103.873105 138.264784,102.549341 C140.665437,101.166515 143.072541,100.945032 145.423516,101.905435 C149.31385,103.491127 152.207408,108.183362 154.060317,112.224629 C155.089997,105.419636 157.542908,96.4235638 163.321636,96.0133382 Z M174.961026,161.838805 C173.575216,162.519304 172.127469,163.077827 170.618432,163.461732 C168.784878,163.928451 166.906163,164.152503 165.028093,164.152503 C164.215832,164.152503 163.408087,164.062625 162.600343,163.981094 C163.16228,167.679543 164.747446,174.107052 168.050037,176.6769 C169.277138,177.632166 170.631981,177.9737 172.190695,177.730389 C173.715861,177.490289 174.7978,176.798234 175.500383,175.613138 C177.580389,172.103431 176.029417,165.188017 174.961026,161.838805 Z M145.552548,154.948429 C144.091254,157.463066 140.850598,163.780154 142.048021,168.629032 C142.537055,170.61532 143.721575,172.097653 145.668033,173.163982 C147.609974,174.225818 149.378367,174.400437 151.080953,173.705172 C154.860319,172.157999 157.608715,166.533608 158.797751,163.316002 C153.641606,161.978757 148.920301,159.030141 145.552548,154.948429 Z M187.123645,148.759737 C185.280413,153.206736 182.145565,157.147212 178.205553,159.923777 C180.324914,161.540926 185.564285,165.091078 189.976557,164.354085 C192.021079,164.015761 193.626245,162.785084 194.886249,160.593363 C196.293996,158.142282 196.583029,156.081524 195.771413,154.291041 C194.268828,150.977138 189.170748,149.215543 187.123645,148.759737 Z M171.233918,121.685495 C164.2068,119.639503 156.54484,120.787364 151.239018,124.690606 C143.678349,130.716876 141.374471,140.855032 145.630613,149.356779 C149.90611,157.897687 160.532595,162.735652 169.822946,160.36867 C179.110072,158.00554 186.096545,148.685267 185.726866,139.151215 C185.58364,135.51889 184.445572,132.009183 182.519114,129.269852 C180.067494,125.783898 176.060385,123.090148 171.233918,121.685495 Z M140.421565,142.100474 C137.961557,143.07821 130.180243,146.480706 127.99572,151.223016 C127.328621,152.668114 127.282169,154.079187 127.851203,155.535841 C128.544754,157.310275 129.557015,157.748106 130.258953,157.922724 C134.098319,158.885053 140.955115,154.111286 143.50351,152.019072 C143.258993,151.603711 142.974476,151.214028 142.757056,150.781976 C141.358987,147.988719 140.635759,145.045238 140.421565,142.100474 Z M164.136541,127.068501 C169.007524,126.720548 173.175279,128.89301 175.937868,133.161538 C178.53336,137.172632 177.954003,142.911937 174.558509,146.808116 C171.771404,150.005821 167.307519,151.873342 162.514601,151.873342 C162.293955,151.873342 162.071374,151.868848 161.848792,151.860503 C159.572656,151.779613 155.386192,151.14983 152.935216,147.864816 C150.094562,144.059156 149.563593,139.725146 151.440373,135.662052 C153.63909,130.902409 158.742331,127.449196 164.136541,127.068501 Z M173.23915,134.889107 C171.141079,131.645822 167.996553,129.999784 164.362349,130.253366 C160.168142,130.548677 156.053291,133.322033 154.356511,136.996729 C153.390057,139.085733 152.806184,142.338006 155.511353,145.962628 C156.717809,147.577851 159.069429,148.566501 161.964922,148.671144 C166.041709,148.820725 169.848817,147.339676 172.13334,144.715902 C174.575928,141.913657 175.052704,137.688784 173.23915,134.889107 Z M200.224976,126.789882 C196.675932,125.366611 189.906879,129.294247 187.168161,131.200287 C188.190745,133.617986 188.82494,136.24818 188.932683,139.026671 C189.013328,141.104762 188.787521,143.174507 188.301068,145.18198 C192.424951,143.860142 204.171439,139.296945 202.643693,130.557665 C202.290143,128.527723 201.497883,127.294478 200.224976,126.789882 Z M144.092544,127.876755 C139.935112,126.694227 130.633147,124.861372 126.409909,127.655913 C125.111195,128.516809 124.40216,129.767387 124.245386,131.484043 C124.062805,133.481244 124.570548,135.020071 125.795068,136.184624 C129.209917,139.428551 137.462846,139.119758 140.40092,138.723656 C140.693824,134.891033 141.943505,131.167546 144.092544,127.876755 Z M187.487517,108.450426 C185.474607,107.212045 183.644279,106.93471 181.885564,107.620345 C177.827487,109.204753 174.900381,115.598878 173.666829,119.193327 C178.49007,120.906131 182.557824,123.753956 185.148155,127.439566 C185.264284,127.603913 185.346865,127.790729 185.457833,127.958928 C187.481065,125.214462 191.812046,118.61426 190.961076,113.373774 C190.624946,111.292473 189.488813,109.682386 187.487517,108.450426 Z M144.205447,104.857903 C142.808669,104.290392 141.3906,104.43869 139.873176,105.311783 C138.453172,106.130308 137.664137,107.229379 137.462846,108.671267 C136.74736,113.793629 143.204154,121.895423 146.197067,125.084782 C147.117715,124.047983 148.134492,123.070889 149.258366,122.177894 C149.27385,122.165054 149.287399,122.154141 149.303528,122.141943 C150.581596,121.200158 151.99773,120.429781 153.477089,119.769183 C153.45967,119.723603 153.428057,119.687652 153.415153,119.639503 C152.456441,116.179871 148.930623,106.782561 144.205447,104.857903 Z M165.074544,99.800381 C164.412607,99.209759 163.883573,99.1725241 163.550669,99.1969194 C159.531946,99.4838846 157.118391,110.48743 156.608712,118.605915 C160.813241,117.374596 165.450674,117.189064 169.964882,118.11801 C169.565526,112.586706 168.231973,102.621885 165.074544,99.800381 Z" id="Combined-Shape"></path>
                <path d="M173.384588,5.00863062 C174.303414,4.94216676 175.165884,5.26077788 175.90562,5.92292407 C178.023805,7.81548243 179.009007,12.5526939 179.462367,16.157112 C180.588671,13.9459426 182.299416,11.5083806 184.638854,10.5957487 C186.397607,9.90950936 188.241939,10.1467023 190.114658,11.298604 C191.926846,12.4156122 193.004724,13.9692049 193.319906,15.9170113 C193.759072,18.6407833 192.575994,21.6428727 191.288135,23.9553996 C193.433037,22.9563647 196.02128,22.2032461 198.033013,23.0041356 C199.560494,23.6110337 200.516474,24.958173 200.874236,27.0077523 C201.946687,33.1465204 195.915246,36.5802094 192.091742,38.113863 C193.670571,38.8511964 195.447275,40.0425611 196.27426,41.8686556 C197.081208,43.6473946 196.858702,45.6496183 195.611753,47.8204941 C194.481693,49.7869935 192.919563,50.9472032 190.967526,51.2678913 C188.286607,51.7086298 185.451228,50.4150769 183.490008,49.2058501 C184.041053,51.7003218 184.433882,55.2332912 183.053764,57.5636803 C182.275621,58.8771723 181.062486,59.671 179.448591,59.9243934 C179.126731,59.9746567 178.811132,60 178.502213,60 C177.282399,60.0008269 176.162775,59.6078593 175.161709,58.8277398 C173.078591,57.20436 171.942686,54.1457764 171.341128,51.703645 C170.278278,53.7885331 168.59926,56.2281721 166.257317,57.1885749 C164.5616,57.8843684 162.779052,57.7339939 160.96269,56.7395284 C159.187238,55.7687407 158.057178,54.3364446 157.600896,52.4825183 C157.004347,50.0561721 157.70526,47.3282461 158.578166,45.1706631 C156.426585,46.4546618 153.693066,47.6319029 151.485962,47.0711141 C150.529147,46.832675 149.233773,46.153082 148.498211,44.2717394 C147.92337,42.8008112 147.971378,41.3199133 148.640564,39.8685088 C149.628689,37.7254648 151.863762,36.0023893 153.942706,34.7827775 C151.724748,34.5879553 149.256316,34.0009964 147.671643,32.497667 C146.406743,31.2971635 145.855281,29.7082619 146.032283,27.772502 C146.19217,26.0232564 146.973235,24.6744555 148.351683,23.762239 C151.114424,21.9336521 155.774097,22.4026377 158.899192,23.017013 C156.841956,20.4070604 154.130145,16.2447612 154.596029,12.9136758 C154.817699,11.3318359 155.683091,10.094362 157.171331,9.237809 C158.724694,8.34303931 160.282232,8.19972661 161.803451,8.82116369 C164.320727,9.8471995 166.193029,12.8833516 167.39197,15.498289 C168.058234,11.0950584 169.645411,5.27407066 173.384588,5.00863062 Z M180.915958,47.6015787 C180.019257,48.0419018 179.08248,48.403299 178.106044,48.6517077 C176.919627,48.9537028 175.703988,49.0986771 174.488766,49.0986771 C173.963185,49.0986771 173.440527,49.0405213 172.917869,48.9877656 C173.281475,51.3808799 174.307171,55.5398558 176.444142,57.2026984 C177.238148,57.8208123 178.114811,58.0418046 179.123391,57.8843684 C180.110263,57.7290091 180.810341,57.2812089 181.264954,56.5143821 C182.61084,54.2433952 181.60727,49.7687159 180.915958,47.6015787 Z M161.886943,43.1431 C160.941399,44.7702184 158.844505,48.8577456 159.619308,51.9952552 C159.935742,53.2805 160.702196,54.2396566 161.961668,54.9296345 C163.218219,55.6167046 164.362473,55.7296932 165.464146,55.2798159 C167.909618,54.2787041 169.687992,50.6393924 170.457368,48.5574121 C167.121039,47.6921357 164.066077,45.7842076 161.886943,43.1431 Z M188.785888,39.1386526 C187.593209,42.0161222 185.564777,44.565842 183.015358,46.3624432 C184.386709,47.4088335 187.77689,49.7059906 190.63189,49.2291125 C191.954816,49.0101971 192.993453,48.213877 193.80875,46.7957044 C194.719644,45.2097106 194.906666,43.8762795 194.381503,42.7177313 C193.409242,40.5734411 190.110484,39.433586 188.785888,39.1386526 Z M178.5043,21.6200258 C173.957341,20.2961488 168.999603,21.0388824 165.566423,23.564509 C160.674226,27.4638605 159.183481,34.0238433 161.937456,39.5249738 C164.703954,45.0514436 171.579914,48.1818913 177.591318,46.6503148 C183.600635,45.1212306 188.121294,39.0904663 187.88209,32.9213741 C187.789414,30.5710459 187.053017,28.3000589 185.806486,26.5275509 C184.220143,24.2719337 181.627308,22.528919 178.5043,21.6200258 Z M158.566895,34.8297176 C156.975125,35.4623704 151.940157,37.6639857 150.526642,40.732539 C150.09499,41.6676024 150.064933,42.5806496 150.433132,43.5231902 C150.8819,44.6713534 151.536892,44.9546556 151.991087,45.0676441 C154.475383,45.6903274 158.912133,42.6014196 160.561095,41.2476339 C160.402878,40.9788707 160.218779,40.7267234 160.078095,40.4471598 C159.173462,38.6397583 158.705491,36.7351533 158.566895,34.8297176 Z M174.126023,25.0232957 C177.347415,24.7991802 180.103732,26.1984547 181.930752,28.9477975 C183.647263,31.5313279 183.264109,35.2279928 181.018522,37.7375072 C179.175288,39.7971367 176.223128,41 173.053363,41 C172.907441,41 172.760238,40.9971055 172.613035,40.9917301 C171.107728,40.9396294 168.339037,40.5339887 166.718101,38.4181236 C164.839454,35.9669122 164.488301,33.1753927 165.729497,30.5583691 C167.183603,27.4927009 170.558598,25.2684995 174.126023,25.0232957 Z M180.145973,30.0605184 C178.758427,27.9715307 176.678816,26.9113239 174.275359,27.0746553 C171.501548,27.264864 168.780219,29.0511718 167.658065,31.4180297 C167.018907,32.7635495 166.632766,34.8583263 168.421812,37.1929314 C169.219693,38.2332903 170.774922,38.870076 172.689837,38.937476 C175.385992,39.0338209 177.903798,38.0798829 179.414653,36.3899199 C181.030042,34.5850047 181.345354,31.8637797 180.145973,30.0605184 Z M197.263219,24.9228641 C194.96678,24.0019243 190.586804,26.5433361 188.814692,27.776656 C189.476364,29.3410491 189.886726,31.0429393 189.956442,32.8407866 C190.008624,34.1854336 189.862513,35.5246803 189.54775,36.8236333 C192.216145,35.9683266 199.816814,33.0156697 198.828272,27.3608415 C198.599504,26.0473495 198.086865,25.2493678 197.263219,24.9228641 Z M160.942234,25.6261348 C158.252131,24.8609697 152.233213,23.6750052 149.500529,25.4832375 C148.660185,26.0402877 148.201398,26.8494852 148.099955,27.9602624 C147.981815,29.2525691 148.310355,30.2482808 149.102691,31.0018148 C151.312299,33.1008265 156.65243,32.9010195 158.553536,32.6447182 C158.743062,30.1647855 159.55168,27.7554707 160.942234,25.6261348 Z M189.021334,13.0561576 C187.718864,12.2548528 186.534534,12.0754003 185.396541,12.5190466 C182.770727,13.5442516 180.876717,17.6816268 180.078536,20.0074464 C183.199457,21.1157312 185.831533,22.9584417 187.50763,25.343248 C187.582772,25.4495902 187.636207,25.5704713 187.70801,25.6793059 C189.01716,23.9034747 191.819559,19.6327564 191.268931,16.2418535 C191.051436,14.8951295 190.316291,13.8533085 189.021334,13.0561576 Z M161.01529,10.7315842 C160.111492,10.3643714 159.193918,10.4603286 158.212055,11.0252714 C157.293229,11.5549053 156.782677,12.2660685 156.65243,13.1990549 C156.189468,16.5135245 160.367394,21.7558613 162.303984,23.8195641 C162.899698,23.1486945 163.557612,22.5164571 164.284825,21.9386369 C164.294844,21.9303289 164.303611,21.9232671 164.314047,21.9153745 C165.141033,21.305984 166.057354,20.8075051 167.014587,20.3800594 C167.003316,20.3505661 166.98286,20.3273037 166.974511,20.2961488 C166.354168,18.057563 164.072756,11.9769508 161.01529,10.7315842 Z M173.601174,7.06537382 L173.532786,7.06859483 C170.932436,7.25427823 169.370723,14.374219 169.040931,19.6273562 C171.761509,18.8306207 174.762201,18.7105704 177.683159,19.3116529 C177.424752,15.7325741 176.561865,9.2847491 174.518823,7.45906999 C174.09051,7.07690281 173.748194,7.05280966 173.532786,7.06859483 Z" id="Combined-Shape"></path>
            </g>
        </g>
    </g>
</svg>