<?xml version="1.0" encoding="UTF-8"?>
<svg width="958px" height="32px" viewBox="0 0 958 32" version="1.1" xmlns="http://www.w3.org/2000/svg" xmlns:xlink="http://www.w3.org/1999/xlink">
    <title>Fill 16</title>
    <g id="version-1.1" stroke="none" stroke-width="1" fill="none" fill-rule="evenodd">
        <g id="Aborto-seguro" transform="translate(-240.000000, -1120.000000)" fill="#FFD3D0">
            <g id="s1" transform="translate(240.000000, 678.000000)">
                <path d="M810.507579,445.796998 C742.937801,449.888263 678.698134,458.528815 612.315046,464.288051 C578.010573,467.263688 543.022723,469.482116 507.597727,469.759797 C473.492844,470.026536 439.696023,468.337814 406.563055,465.619862 C340.419692,460.193768 277.38624,450.939375 210.99339,445.853213 C147.85038,441.016436 79.5690217,439.569553 18.7494961,448.463262 C12.3365936,449.401189 6.0972472,450.468148 0,451.630182 L0,456.160227 C0.950220342,456.160605 1.95793118,456.073452 2.9851671,455.870473 C60.0591323,444.591576 128.325305,444.633077 191.211234,448.742075 C257.113788,453.048014 319.428066,462.001334 384.051727,467.995241 C415.925328,470.951636 448.507256,473.201756 481.502464,473.831065 C516.152965,474.492067 550.863125,473.159123 584.811808,470.779595 C651.949865,466.073357 715.995367,457.316602 782.715804,452.042553 C839.830989,447.527221 900.888069,445.299738 958,450.875614 L958,446.577975 C910.136447,442.191297 859.411385,442.835698 810.507579,445.796998" id="Fill-16"></path>
            </g>
        </g>
    </g>
</svg>