<?xml version="1.0" encoding="UTF-8"?>
<svg width="40px" height="30px" viewBox="0 0 40 30" version="1.1" xmlns="http://www.w3.org/2000/svg" xmlns:xlink="http://www.w3.org/1999/xlink">
    <title>“</title>
    <g id="version-1.1" stroke="none" stroke-width="1" fill="none" fill-rule="evenodd">
        <g id="Aborto-seguro" transform="translate(-1103.000000, -2718.000000)" fill="#551763" fill-rule="nonzero">
            <g id="quote" transform="translate(0.000000, 2546.000000)">
                <path d="M1112.62138,202 C1114.81886,202 1116.63029,201.422492 1118.05568,200.267477 C1119.48107,199.112462 1120.19376,197.56231 1120.19376,195.617021 C1120.19376,194.401216 1119.91166,193.291793 1119.34744,192.288754 C1118.78322,191.285714 1117.78842,190.297872 1116.36303,189.325228 C1114.64068,188.170213 1113.77951,186.924012 1113.77951,185.586626 C1113.77951,184.370821 1114.5516,182.957447 1116.09577,181.346505 C1117.63994,179.735562 1119.65924,178.382979 1122.15367,177.288754 L1122.15367,177.288754 L1117.96659,172 C1115.05642,172.851064 1112.4729,174.218845 1110.21604,176.103343 C1107.95917,177.987842 1106.19228,180.176292 1104.91537,182.668693 C1103.63846,185.161094 1103,187.714286 1103,190.328267 C1103,193.793313 1103.92056,196.604863 1105.76169,198.762918 C1107.60282,200.920973 1109.88938,202 1112.62138,202 Z M1133.46771,202 C1135.66518,202 1137.47661,201.422492 1138.902,200.267477 C1140.32739,199.112462 1141.04009,197.56231 1141.04009,195.617021 C1141.04009,194.401216 1140.75798,193.291793 1140.19376,192.288754 C1139.62955,191.285714 1138.63474,190.297872 1137.20935,189.325228 C1135.48701,188.170213 1134.62584,186.924012 1134.62584,185.586626 C1134.62584,184.370821 1135.39792,182.957447 1136.94209,181.346505 C1138.48627,179.735562 1140.50557,178.382979 1143,177.288754 L1143,177.288754 L1138.81292,172 C1135.90275,172.851064 1133.31923,174.218845 1131.06236,176.103343 C1128.80549,177.987842 1127.0386,180.176292 1125.76169,182.668693 C1124.48478,185.161094 1123.84633,187.714286 1123.84633,190.328267 C1123.84633,193.793313 1124.76689,196.604863 1126.60802,198.762918 C1128.44915,200.920973 1130.73571,202 1133.46771,202 Z" id="“" transform="translate(1123.000000, 187.000000) rotate(-180.000000) translate(-1123.000000, -187.000000) "></path>
            </g>
        </g>
    </g>
</svg>