<?xml version="1.0" encoding="UTF-8"?>
<svg width="40px" height="30px" viewBox="0 0 40 30" version="1.1" xmlns="http://www.w3.org/2000/svg" xmlns:xlink="http://www.w3.org/1999/xlink">
    <title>“</title>
    <g id="version-1.1" stroke="none" stroke-width="1" fill="none" fill-rule="evenodd">
        <g id="Aborto-seguro" transform="translate(-297.000000, -2619.000000)" fill="#551763" fill-rule="nonzero">
            <g id="quote" transform="translate(0.000000, 2546.000000)">
                <path d="M306.621381,103 C308.818857,103 310.63029,102.422492 312.055679,101.267477 C313.481069,100.112462 314.193764,98.56231 314.193764,96.6170213 C314.193764,95.4012158 313.911656,94.2917933 313.347439,93.2887538 C312.783222,92.2857143 311.788419,91.2978723 310.363029,90.325228 C308.640683,89.1702128 307.77951,87.9240122 307.77951,86.5866261 C307.77951,85.3708207 308.551596,83.9574468 310.095768,82.3465046 C311.639941,80.7355623 313.659243,79.3829787 316.153675,78.2887538 L316.153675,78.2887538 L311.966592,73 C309.056422,73.8510638 306.472903,75.218845 304.216036,77.1033435 C301.959169,78.9878419 300.192279,81.1762918 298.915367,83.668693 C297.638456,86.1610942 297,88.7142857 297,91.3282675 C297,94.7933131 297.920564,97.6048632 299.761693,99.7629179 C301.602821,101.920973 303.889384,103 306.621381,103 Z M327.467706,103 C329.665182,103 331.476615,102.422492 332.902004,101.267477 C334.327394,100.112462 335.040089,98.56231 335.040089,96.6170213 C335.040089,95.4012158 334.757981,94.2917933 334.193764,93.2887538 C333.629547,92.2857143 332.634744,91.2978723 331.209354,90.325228 C329.487008,89.1702128 328.625835,87.9240122 328.625835,86.5866261 C328.625835,85.3708207 329.397921,83.9574468 330.942094,82.3465046 C332.486266,80.7355623 334.505568,79.3829787 337,78.2887538 L337,78.2887538 L332.812918,73 C329.902747,73.8510638 327.319228,75.218845 325.062361,77.1033435 C322.805494,78.9878419 321.038604,81.1762918 319.761693,83.668693 C318.484781,86.1610942 317.846325,88.7142857 317.846325,91.3282675 C317.846325,94.7933131 318.766889,97.6048632 320.608018,99.7629179 C322.449146,101.920973 324.735709,103 327.467706,103 Z" id="“"></path>
            </g>
        </g>
    </g>
</svg>