<?xml version="1.0" encoding="UTF-8"?>
<svg width="289px" height="324px" viewBox="0 0 289 324" version="1.1" xmlns="http://www.w3.org/2000/svg" xmlns:xlink="http://www.w3.org/1999/xlink">
    <title>manchas derecha</title>
    <g id="version-1.1" stroke="none" stroke-width="1" fill="none" fill-rule="evenodd">
        <g id="Home" transform="translate(-1136.000000, -3210.000000)" fill="#FB5A4B">
            <g id="datos" transform="translate(0.000000, 3195.000000)">
                <g id="textura" transform="translate(18.000216, 7.000107)">
                    <g id="manchas-derecha" transform="translate(1117.999784, 7.999893)">
                        <path d="M160.529095,272.542727 C159.817665,271.957977 158.819741,271.757546 157.785285,272.387472 C140.79366,282.744345 125.39474,297.770305 116.277549,315.514492 C115.223223,317.565887 117.365202,319.839347 119.476417,318.690845 C137.277533,309.009075 151.253594,293.657971 162.474309,277.115734 C163.822179,275.128604 162.362788,273.126203 160.529095,272.542727" id="Fill-1" transform="translate(139.500054, 295.500000) rotate(-180.000000) translate(-139.500054, -295.500000) "></path>
                        <path d="M155.997794,210.615087 C141.581018,220.7052 129.840747,233.692646 122.370596,249.78286 C121.75747,251.101762 121.959712,252.366568 122.579238,253.349304 C122.577958,253.575347 122.623398,253.787865 122.726439,253.984283 C122.79684,254.203242 122.917801,254.392576 123.088683,254.552287 C123.409966,254.848525 123.82789,255.065551 124.274614,255.064263 C125.330624,256.023815 126.866638,256.396045 128.270812,255.453236 C142.803429,245.694136 153.49921,231.190726 160.689678,215.336214 C161.96201,212.530328 159.110143,208.436452 155.997794,210.615087" id="Fill-3" transform="translate(141.500054, 233.000000) rotate(-180.000000) translate(-141.500054, -233.000000) "></path>
                        <path d="M90.6357503,288.316245 C77.5638927,294.265345 66.7888908,305.962106 60.4136972,318.6184 C58.3789931,322.657332 64.4021,326.226029 66.5127068,322.300208 C72.0772079,318.789972 77.4548224,313.977696 82.0753229,309.381473 C87.0491857,304.433209 91.4177401,298.820899 95.3901968,293.052902 C97.5556578,289.909322 93.4754063,287.023736 90.6357503,288.316245" id="Fill-5" transform="translate(78.000054, 306.000054) rotate(-180.000000) translate(-78.000054, -306.000054) "></path>
                        <path d="M259.63575,0.316244602 C246.563893,6.26534457 235.788891,17.9621063 229.413697,30.6184003 C227.378993,34.657332 233.4021,38.2260295 235.512707,34.3002081 C241.077208,30.7899723 246.454822,25.9776956 251.075323,21.3814726 C256.049186,16.4332092 260.41774,10.8208987 264.390197,5.05290249 C266.555658,1.90932232 262.475406,-0.976264407 259.63575,0.316244602" id="Fill-5" transform="translate(247.000054, 18.000054) rotate(-180.000000) translate(-247.000054, -18.000054) "></path>
                        <path d="M260.63575,62.3162446 C247.563893,68.2653446 236.788891,79.9621063 230.413697,92.6184003 C228.378993,96.657332 234.4021,100.226029 236.512707,96.3002081 C242.077208,92.7899723 247.454822,87.9776956 252.075323,83.3814726 C257.049186,78.4332092 261.41774,72.8208987 265.390197,67.0529025 C267.555658,63.9093223 263.475406,61.0237356 260.63575,62.3162446" id="Fill-5" transform="translate(248.000054, 80.000054) rotate(-180.000000) translate(-248.000054, -80.000054) "></path>
                        <path d="M96.2350355,223.411307 C82.0113983,232.473004 70.4083095,245.336104 62.385163,259.931911 C61.5718893,261.410898 62.1448339,262.818918 63.1901052,263.63974 C63.8130382,264.780224 65.2024609,265.471673 66.7835059,264.620707 C74.0798972,260.694955 80.5867274,254.074371 85.8944756,247.885864 C89.2776684,243.941272 92.3346545,239.736052 95.0519754,235.32861 C95.4935401,234.70687 95.907547,234.075082 96.2869465,233.431362 C96.3971775,233.243584 96.4702375,233.04827 96.5272756,232.851072 C97.6635516,230.884114 98.7389442,228.883243 99.7406359,226.846575 C100.771167,224.750245 98.5524488,221.934832 96.2350355,223.411307" id="Fill-8" transform="translate(81.000054, 244.000000) rotate(-180.000000) translate(-81.000054, -244.000000) "></path>
                        <path d="M236.235035,277.411307 C222.011398,286.473004 210.40831,299.336104 202.385163,313.931911 C201.571889,315.410898 202.144834,316.818918 203.190105,317.63974 C203.813038,318.780224 205.202461,319.471673 206.783506,318.620707 C214.079897,314.694955 220.586727,308.074371 225.894476,301.885864 C229.277668,297.941272 232.334654,293.736052 235.051975,289.32861 C235.49354,288.70687 235.907547,288.075082 236.286947,287.431362 C236.397177,287.243584 236.470238,287.04827 236.527276,286.851072 C237.663552,284.884114 238.738944,282.883243 239.740636,280.846575 C240.771167,278.750245 238.552449,275.934832 236.235035,277.411307" id="Fill-8" transform="translate(221.000054, 298.000000) rotate(-180.000000) translate(-221.000054, -298.000000) "></path>
                        <path d="M138.520014,154.42703 C138.266113,152.663402 136.551648,151.173473 134.834669,152.522054 C123.429203,161.481541 115.661948,173.169029 111.138224,187.064104 C110.30613,189.618634 113.434652,190.782179 115.117065,189.432313 C125.763968,180.886588 132.782716,169.739432 138.646337,157.440295 C139.210702,156.256834 139.048557,155.205082 138.520014,154.42703" id="Fill-10" transform="translate(125.000054, 171.000000) rotate(-180.000000) translate(-125.000054, -171.000000) "></path>
                        <path d="M195.520014,100.42703 C195.266113,98.6634017 193.551648,97.1734734 191.834669,98.5220545 C180.429203,107.481541 172.661948,119.169029 168.138224,133.064104 C167.30613,135.618634 170.434652,136.782179 172.117065,135.432313 C182.763968,126.886588 189.782716,115.739432 195.646337,103.440295 C196.210702,102.256834 196.048557,101.205082 195.520014,100.42703" id="Fill-10" transform="translate(182.000054, 117.000000) rotate(-180.000000) translate(-182.000054, -117.000000) "></path>
                        <path d="M195.520014,32.4270296 C195.266113,30.6634017 193.551648,29.1734734 191.834669,30.5220545 C180.429203,39.4815412 172.661948,51.1690293 168.138224,65.0641041 C167.30613,67.618634 170.434652,68.7821787 172.117065,67.4323127 C182.763968,58.8865879 189.782716,47.7394316 195.646337,35.4402955 C196.210702,34.2568337 196.048557,33.2050818 195.520014,32.4270296" id="Fill-10" transform="translate(182.000054, 49.000000) rotate(-180.000000) translate(-182.000054, -49.000000) "></path>
                        <path d="M195.769243,234.357502 C195.858299,234.472559 195.952443,234.581958 196.051677,234.686327 C195.822676,234.879976 195.59622,235.076139 195.364675,235.267273 C195.494442,234.961711 195.633751,234.660549 195.769243,234.357502 M216.972789,205.605722 C216.595575,205.580573 216.18719,205.64156 215.757814,205.835209 C202.12719,211.981664 192.099508,226.595213 188.109809,240.440455 C187.504866,242.540411 189.521979,243.828048 191.189231,243.516198 C192.169481,244.162531 193.549209,244.253068 194.905402,243.217552 C200.96374,238.590735 206.074269,232.922742 210.562045,226.813382 C212.738187,223.851439 214.746395,220.757464 216.57013,217.572322 C218.360151,214.447539 220.650793,210.854981 220.987933,207.230358 C221.207392,204.873253 218.44539,204.477782 216.972789,205.605722" id="Fill-12" transform="translate(204.500162, 224.500000) rotate(-180.000000) translate(-204.500162, -224.500000) "></path>
                        <path d="M212.405085,143.112651 C203.29311,145.848009 195.318623,154.348062 189.722692,161.677906 C183.652703,169.628095 179.334063,178.827226 177.102935,188.574953 C176.254585,192.280512 180.868718,194.212025 183.018506,192.172571 C183.535141,192.175745 184.061944,192.032247 184.559515,191.702709 C185.021501,191.556671 185.477131,191.302691 185.906707,190.919183 C192.617249,184.937969 198.609711,178.227835 203.805297,170.891642 C206.358607,167.28704 208.751144,163.53132 210.800528,159.614959 C212.659272,156.063058 215.584331,151.55302 215.716508,147.483636 C215.720321,147.373155 215.710789,147.269023 215.701257,147.164892 C216.779646,145.197822 214.767754,142.403414 212.405085,143.112651" id="Fill-15" transform="translate(196.500054, 168.000000) rotate(-180.000000) translate(-196.500054, -168.000000) "></path>
                        <path d="M131.405085,86.1126513 C122.29311,88.8480088 114.318623,97.3480624 108.722692,104.677906 C102.652703,112.628095 98.3340625,121.827226 96.1029346,131.574953 C95.254585,135.280512 99.8687176,137.212025 102.018506,135.172571 C102.535141,135.175745 103.061944,135.032247 103.559515,134.702709 C104.021501,134.556671 104.477131,134.302691 104.906707,133.919183 C111.617249,127.937969 117.609711,121.227835 122.805297,113.891642 C125.358607,110.28704 127.751144,106.53132 129.800528,102.614959 C131.659272,99.0630579 134.584331,94.5530198 134.716508,90.4836358 C134.720321,90.3731548 134.710789,90.2690232 134.701257,90.1648917 C135.779646,88.1978217 133.767754,85.403414 131.405085,86.1126513" id="Fill-15" transform="translate(115.500054, 111.000000) rotate(-180.000000) translate(-115.500054, -111.000000) "></path>
                        <path d="M283.405085,194.112651 C274.29311,196.848009 266.318623,205.348062 260.722692,212.677906 C254.652703,220.628095 250.334063,229.827226 248.102935,239.574953 C247.254585,243.280512 251.868718,245.212025 254.018506,243.172571 C254.535141,243.175745 255.061944,243.032247 255.559515,242.702709 C256.021501,242.556671 256.477131,242.302691 256.906707,241.919183 C263.617249,235.937969 269.609711,229.227835 274.805297,221.891642 C277.358607,218.28704 279.751144,214.53132 281.800528,210.614959 C283.659272,207.063058 286.584331,202.55302 286.716508,198.483636 C286.720321,198.373155 286.710789,198.269023 286.701257,198.164892 C287.779646,196.197822 285.767754,193.403414 283.405085,194.112651" id="Fill-15" transform="translate(267.500054, 219.000000) rotate(-180.000000) translate(-267.500054, -219.000000) "></path>
                        <path d="M90.7534706,175.526549 C90.6548133,173.765547 88.9673905,172.276054 86.9032764,173.377315 C83.4470706,175.221419 80.2797894,177.918746 77.2009154,180.322996 C74.0957755,182.747546 71.2449662,185.352255 68.6901285,188.345198 C63.493968,194.431312 59.5092413,201.300235 56.3259444,208.60243 C54.7057878,212.317916 59.5361479,215.586808 61.8148734,213.169871 C62.7367418,213.365256 63.7399705,213.111509 64.5798381,212.151712 C66.9982213,209.389045 69.9111718,207.131968 72.515338,204.55073 C75.1246293,201.964417 77.2118061,198.855385 79.4495312,195.958233 C81.9236493,192.754046 84.0704048,189.405224 86.276739,186.020243 C88.0865224,183.242352 90.9360505,180.209444 90.999473,176.771177 C91.0084418,176.284617 90.9129878,175.875451 90.7534706,175.526549" id="Fill-17" transform="translate(73.500054, 193.500000) rotate(-180.000000) translate(-73.500054, -193.500000) "></path>
                        <path d="M288.753471,126.526549 C288.654813,124.765547 286.96739,123.276054 284.903276,124.377315 C281.447071,126.221419 278.279789,128.918746 275.200915,131.322996 C272.095775,133.747546 269.244966,136.352255 266.690129,139.345198 C261.493968,145.431312 257.509241,152.300235 254.325944,159.60243 C252.705788,163.317916 257.536148,166.586808 259.814873,164.169871 C260.736742,164.365256 261.73997,164.111509 262.579838,163.151712 C264.998221,160.389045 267.911172,158.131968 270.515338,155.55073 C273.124629,152.964417 275.211806,149.855385 277.449531,146.958233 C279.923649,143.754046 282.070405,140.405224 284.276739,137.020243 C286.086522,134.242352 288.93605,131.209444 288.999473,127.771177 C289.008442,127.284617 288.912988,126.875451 288.753471,126.526549" id="Fill-17" transform="translate(271.500054, 144.500000) rotate(-180.000000) translate(-271.500054, -144.500000) "></path>
                        <path d="M34.8273466,256.337333 C27.5133711,260.327425 20.9932636,266.724981 15.1992316,272.636111 C9.44258039,278.508023 4.69394507,285.269292 0.472443116,292.297496 C-1.35858505,295.344463 2.55626721,298.151064 4.98348828,296.520364 C5.92244459,296.694314 6.94503263,296.503285 7.85927956,295.744864 C10.8630528,293.252638 14.0359901,291.207621 16.7210757,288.335869 C19.6247443,285.230074 22.4504832,282.045845 25.3408467,278.925502 C28.1722878,275.869046 30.6622327,272.585507 33.383432,269.44429 C34.3939821,268.277878 35.3728536,267.157009 36.0653497,265.774266 C36.6723134,264.561678 37.1196164,263.228274 38.0230926,262.187738 C38.5445238,261.587453 38.743466,260.784122 38.6585671,260.029496 C39.9675305,257.88517 37.2602698,255.009622 34.8273466,256.337333" id="Fill-19" transform="translate(19.500027, 276.500000) rotate(-180.000000) translate(-19.500027, -276.500000) "></path>
                        <path d="M68.9875147,110.120948 C68.532309,109.98223 68.0167059,109.952825 67.4508775,110.084511 C60.2858376,111.757435 55.0973823,117.308067 50.61208,122.764089 C45.5507772,128.921372 41.0750113,135.661014 39.3705329,143.581355 C39.2669036,144.060795 39.2662679,144.506993 39.3451024,144.913558 C39.298056,145.137296 39.2878838,145.355282 39.2929699,145.569431 C38.2776577,147.730106 40.0202819,150.680257 42.6942976,149.859456 C46.2068838,148.781037 49.5122114,145.899286 52.3973003,143.653591 C55.6606676,141.112561 58.7282202,138.261494 61.415587,135.108699 C66.6307443,128.990411 71.0524704,122.202186 72.8993595,114.284401 C73.5306714,111.579723 71.0690002,109.878032 68.9875147,110.120948" id="Fill-22" transform="translate(56.000054, 129.999918) rotate(-180.000000) translate(-56.000054, -129.999918) "></path>
                    </g>
                </g>
            </g>
        </g>
    </g>
</svg>