<?xml version="1.0" encoding="UTF-8"?>
<svg width="285px" height="332px" viewBox="0 0 285 332" version="1.1" xmlns="http://www.w3.org/2000/svg" xmlns:xlink="http://www.w3.org/1999/xlink">
    <title>manchas izquierda</title>
    <g id="version-1.1" stroke="none" stroke-width="1" fill="none" fill-rule="evenodd">
        <g id="Home" transform="translate(-18.000000, -3202.000000)" fill="#FB5A4B">
            <g id="datos" transform="translate(0.000000, 3195.000000)">
                <g id="manchas-izquierda" transform="translate(18.000216, 7.000107)">
                    <path d="M166.529041,43.5427265 C165.817611,42.9579771 164.819687,42.7575462 163.785231,43.3874721 C146.793606,53.7443451 131.394686,68.7703054 122.277495,86.5144915 C121.223169,88.5658867 123.365148,90.8393466 125.476363,89.6908453 C143.277479,80.0090747 157.25354,64.6579708 168.474255,48.1157342 C169.822125,46.1286043 168.362734,44.1262034 166.529041,43.5427265" id="Fill-1"></path>
                    <path d="M157.99774,106.615087 C143.580964,116.7052 131.840693,129.692646 124.370542,145.78286 C123.757416,147.101762 123.959658,148.366568 124.579184,149.349304 C124.577904,149.575347 124.623344,149.787865 124.726385,149.984283 C124.796786,150.203242 124.917747,150.392576 125.088629,150.552287 C125.409912,150.848525 125.827836,151.065551 126.27456,151.064263 C127.33057,152.023815 128.866584,152.396045 130.270758,151.453236 C144.803375,141.694136 155.499156,127.190726 162.689624,111.336214 C163.961956,108.530328 161.110089,104.436452 157.99774,106.615087" id="Fill-3"></path>
                    <path d="M33.99774,135.615087 C19.5809637,145.7052 7.84069262,158.692646 0.370541963,174.78286 C-0.242583836,176.101762 -0.0403419234,177.366568 0.579183937,178.349304 C0.577903925,178.575347 0.623344355,178.787865 0.726385329,178.984283 C0.796785995,179.203242 0.917747139,179.392576 1.08862876,179.552287 C1.40991179,179.848525 1.82783575,180.065551 2.27455997,180.064263 C3.33056996,181.023815 4.86658449,181.396045 6.27075777,180.453236 C20.8033752,170.694136 31.4991564,156.190726 38.6896244,140.336214 C39.9619565,137.530328 37.1100895,133.436452 33.99774,135.615087" id="Fill-3"></path>
                    <path d="M219.635696,38.3161373 C206.563839,44.2652373 195.788837,55.961999 189.413643,68.6182929 C187.378939,72.6572247 193.402046,76.2259222 195.512653,72.3001008 C201.077154,68.7898649 206.454768,63.9775883 211.075269,59.3813652 C216.049132,54.4331019 220.417686,48.8207914 224.390143,43.0527952 C226.555604,39.909215 222.475352,37.0236283 219.635696,38.3161373" id="Fill-5"></path>
                    <path d="M219.234981,97.4113068 C205.011344,106.473004 193.408256,119.336104 185.385109,133.931911 C184.571835,135.410898 185.14478,136.818918 186.190051,137.63974 C186.812984,138.780224 188.202407,139.471673 189.783452,138.620707 C197.079843,134.694955 203.586673,128.074371 208.894422,121.885864 C212.277614,117.941272 215.3346,113.736052 218.051921,109.32861 C218.493486,108.70687 218.907493,108.075082 219.286893,107.431362 C219.397124,107.243584 219.470184,107.04827 219.527222,106.851072 C220.663498,104.884114 221.73889,102.883243 222.740582,100.846575 C223.771113,98.7502449 221.552395,95.9348323 219.234981,97.4113068" id="Fill-8"></path>
                    <path d="M122.234981,177.411307 C108.011344,186.473004 96.4082555,199.336104 88.385109,213.931911 C87.5718354,215.410898 88.1447799,216.818918 89.1900513,217.63974 C89.8129843,218.780224 91.2024069,219.471673 92.7834519,218.620707 C100.079843,214.694955 106.586673,208.074371 111.894422,201.885864 C115.277614,197.941272 118.3346,193.736052 121.051921,189.32861 C121.493486,188.70687 121.907493,188.075082 122.286893,187.431362 C122.397124,187.243584 122.470184,187.04827 122.527222,186.851072 C123.663498,184.884114 124.73889,182.883243 125.740582,180.846575 C126.771113,178.750245 124.552395,175.934832 122.234981,177.411307" id="Fill-8"></path>
                    <path d="M37.2349815,223.411307 C23.0113443,232.473004 11.4082555,245.336104 3.38510902,259.931911 C2.57183536,261.410898 3.14477992,262.818918 4.19005127,263.63974 C4.81298428,264.780224 6.2024069,265.471673 7.78345191,264.620707 C15.0798433,260.694955 21.5866734,254.074371 26.8944216,247.885864 C30.2776144,243.941272 33.3346005,239.736052 36.0519215,235.32861 C36.4934861,234.70687 36.907493,234.075082 37.2868926,233.431362 C37.3971235,233.243584 37.4701836,233.04827 37.5272217,232.851072 C38.6634976,230.884114 39.7388902,228.883243 40.7405819,226.846575 C41.7711131,224.750245 39.5523949,221.934832 37.2349815,223.411307" id="Fill-8"></path>
                    <path d="M173.51996,174.42703 C173.266059,172.663402 171.551594,171.173473 169.834615,172.522054 C158.429149,181.481541 150.661894,193.169029 146.13817,207.064104 C145.306076,209.618634 148.434598,210.782179 150.117011,209.432313 C160.763914,200.886588 167.782662,189.739432 173.646283,177.440295 C174.210648,176.256834 174.048503,175.205082 173.51996,174.42703" id="Fill-10"></path>
                    <path d="M104.51996,2.42702959 C104.266059,0.663401695 102.551594,-0.826526568 100.834615,0.522054469 C89.4291492,9.48154115 81.6618939,21.1690293 77.13817,35.0641041 C76.3060763,37.618634 79.4345978,38.7821787 81.1170108,37.4323127 C91.7639136,28.8865879 98.7826616,17.7394316 104.646283,5.44029546 C105.210648,4.25683368 105.048503,3.20508182 104.51996,2.42702959" id="Fill-10"></path>
                    <path d="M107.51996,296.42703 C107.266059,294.663402 105.551594,293.173473 103.834615,294.522054 C92.4291492,303.481541 84.6618939,315.169029 80.13817,329.064104 C79.3060763,331.618634 82.4345978,332.782179 84.1170108,331.432313 C94.7639136,322.886588 101.782662,311.739432 107.646283,299.440295 C108.210648,298.256834 108.048503,297.205082 107.51996,296.42703" id="Fill-10"></path>
                    <path d="M35.5199603,58.4270296 C35.2660585,56.6634017 33.5515936,55.1734734 31.8346147,56.5220545 C20.4291492,65.4815412 12.6618939,77.1690293 8.13816998,91.0641041 C7.30607628,93.618634 10.4345978,94.7821787 12.1170108,93.4323127 C22.7639136,84.8865879 29.7826616,73.7394316 35.6462826,61.4402955 C36.2106483,60.2568337 36.0485032,59.2050818 35.5199603,58.4270296" id="Fill-10"></path>
                    <path d="M68.7689724,99.3575019 C68.8580282,99.4725593 68.9521728,99.5819582 69.0514064,99.6863272 C68.8224058,99.8799758 68.5959497,100.076139 68.3644047,100.267273 C68.4941717,99.9617105 68.6334804,99.6605493 68.7689724,99.3575019 M89.972519,70.6057224 C89.5953042,70.5805732 89.1869198,70.64156 88.7575437,70.8352085 C75.1269194,76.9816637 65.0992379,91.595213 61.1095386,105.440455 C60.5045954,107.540411 62.5217089,108.828048 64.1889605,108.516198 C65.1692103,109.162531 66.5489388,109.253068 67.9051312,108.217552 C73.9634692,103.590735 79.0739991,97.9227422 83.5617746,91.813382 C85.7379164,88.8514395 87.7461244,85.7574638 89.5698596,82.5723224 C91.359881,79.447539 93.650523,75.8549812 93.9876628,72.2303583 C94.2071217,69.8732531 91.4451201,69.4777825 89.972519,70.6057224" id="Fill-12"></path>
                    <path d="M97.4050306,135.112651 C88.293056,137.848009 80.3185689,146.348062 74.7226383,153.677906 C68.6526486,161.628095 64.3340086,170.827226 62.1028807,180.574953 C61.254531,184.280512 65.8686636,186.212025 68.0184516,184.172571 C68.5350871,184.175745 69.06189,184.032247 69.5594614,183.702709 C70.0214466,183.556671 70.4770771,183.302691 70.9066534,182.919183 C77.6171947,176.937969 83.6096573,170.227835 88.8052431,162.891642 C91.3585533,159.28704 93.75109,155.53132 95.8004741,151.614959 C97.6592178,148.063058 100.584277,143.55302 100.716454,139.483636 C100.720267,139.373155 100.710735,139.269023 100.701203,139.164892 C101.779592,137.197822 99.7677004,134.403414 97.4050306,135.112651" id="Fill-15"></path>
                    <path d="M228.753417,150.526549 C228.654759,148.765547 226.967337,147.276054 224.903222,148.377315 C221.447017,150.221419 218.279735,152.918746 215.200861,155.322996 C212.095721,157.747546 209.244912,160.352255 206.690075,163.345198 C201.493914,169.431312 197.509187,176.300235 194.32589,183.60243 C192.705734,187.317916 197.536094,190.586808 199.814819,188.169871 C200.736688,188.365256 201.739916,188.111509 202.579784,187.151712 C204.998167,184.389045 207.911118,182.131968 210.515284,179.55073 C213.124575,176.964417 215.211752,173.855385 217.449477,170.958233 C219.923595,167.754046 222.070351,164.405224 224.276685,161.020243 C226.086468,158.242352 228.935997,155.209444 228.999419,151.771177 C229.008388,151.284617 228.912934,150.875451 228.753417,150.526549" id="Fill-17"></path>
                    <path d="M107.753417,246.526549 C107.654759,244.765547 105.967337,243.276054 103.903222,244.377315 C100.447017,246.221419 97.2797354,248.918746 94.2008614,251.322996 C91.0957215,253.747546 88.2449122,256.352255 85.6900746,259.345198 C80.4939141,265.431312 76.5091874,272.300235 73.3258904,279.60243 C71.7057339,283.317916 76.5360939,286.586808 78.8148194,284.169871 C79.7366879,284.365256 80.7399165,284.111509 81.5797841,283.151712 C83.9981673,280.389045 86.9111178,278.131968 89.5152841,275.55073 C92.1245754,272.964417 94.2117521,269.855385 96.4494773,266.958233 C98.9235954,263.754046 101.070351,260.405224 103.276685,257.020243 C105.086468,254.242352 107.935997,251.209444 107.999419,247.771177 C108.008388,247.284617 107.912934,246.875451 107.753417,246.526549" id="Fill-17"></path>
                    <path d="M280.827347,65.337333 C273.513371,69.3274246 266.993264,75.724981 261.199232,81.6361107 C255.44258,87.5080226 250.693945,94.2692922 246.472443,101.297496 C244.641415,104.344463 248.556267,107.151064 250.983488,105.520364 C251.922445,105.694314 252.945033,105.503285 253.85928,104.744864 C256.863053,102.252638 260.03599,100.207621 262.721076,97.3358687 C265.624744,94.2300745 268.450483,91.0458448 271.340847,87.925502 C274.172288,84.8690463 276.662233,81.5855071 279.383432,78.4442904 C280.393982,77.2778781 281.372854,76.157009 282.06535,74.7742664 C282.672313,73.5616784 283.119616,72.2282743 284.023093,71.1877383 C284.544524,70.5874535 284.743466,69.7841218 284.658567,69.029496 C285.96753,66.8851697 283.26027,64.0096218 280.827347,65.337333" id="Fill-19"></path>
                    <path d="M169.987461,240.121112 C169.532255,239.982394 169.016652,239.952988 168.450824,240.084674 C161.285784,241.757599 156.097328,247.30823 151.612026,252.764253 C146.550723,258.921535 142.074957,265.661177 140.370479,273.581519 C140.26685,274.060958 140.266214,274.507157 140.345048,274.913722 C140.298002,275.13746 140.28783,275.355445 140.292916,275.569595 C139.277604,277.730269 141.020228,280.680421 143.694244,279.85962 C147.20683,278.781201 150.512157,275.899449 153.397246,273.653754 C156.660614,271.112725 159.728166,268.261657 162.415533,265.108863 C167.63069,258.990575 172.052416,252.20235 173.899306,244.284565 C174.530617,241.579887 172.068946,239.878196 169.987461,240.121112" id="Fill-22"></path>
                </g>
            </g>
        </g>
    </g>
</svg>