<?xml version="1.0" encoding="UTF-8"?>
<svg width="1439px" height="517px" viewBox="0 0 1439 517" version="1.1" xmlns="http://www.w3.org/2000/svg" xmlns:xlink="http://www.w3.org/1999/xlink">
    <title>lineas</title>
    <g id="version-1.1" stroke="none" stroke-width="1" fill="none" fill-rule="evenodd">
        <g id="Home" transform="translate(0.000000, -1926.000000)" fill="#FC766A">
            <g id="video" transform="translate(-0.000815, 1902.000000)">
                <g id="lineas" transform="translate(0.000000, 23.999893)">
                    <path d="M100.942691,47.1948495 C150.916676,38.1531218 202.228362,36.8490264 253.069164,40.7960883 C349.184888,48.2608638 441.639448,73.3061822 534.488312,93.5671425 C630.931536,114.61056 729.043221,130.025636 829.098728,120.291066 C942.158126,109.293864 1048.67077,74.2678689 1160.1888,57.2036141 C1251.86616,43.1755608 1353.8329,40.8281891 1439.00098,76.3891973 L1439.00098,36.497255 C1376.43696,8.34083336 1302.77702,-1.33756041 1231.14726,0.145764447 C1123.16005,2.38345831 1020.32812,30.2576604 916.616338,52.1049357 C861.198675,63.7802672 804.935375,73.8906844 747.712384,76.9242108 C692.467432,79.852072 637.367493,75.3512712 583.116448,66.769655 C475.240032,49.7027252 371.164903,18.1757186 262.058322,6.10046443 C175.629122,-3.46423898 80.8527291,-1.48602665 0.000814678018,28.0052537 L0.000814678018,76.1925799 C32.0649157,63.3188181 65.9196793,53.5320841 100.942691,47.1948495" id="Fill-1"></path>
                    <path d="M1201.65632,178.70521 C1100.16043,193.122481 1003.66829,223.571054 903.953289,243.866115 C852.424881,254.352007 799.871607,262.16956 746.660074,263.148084 C695.431468,264.088052 644.663969,258.137139 594.895267,248.559306 C495.541979,229.438208 400.861686,196.826512 301.133646,178.903308 C206.285529,161.860243 103.720779,156.76022 12.3660032,188.100899 C8.19159118,189.532788 4.08072404,191.071038 0.000814678018,192.65848 L0.000814678018,209.258815 C83.3505605,174.523883 181.072862,175.235174 271.417437,189.083411 C370.409008,204.257177 464.010666,235.807919 561.081225,256.929938 C608.958245,267.348025 657.900864,275.277258 707.462638,277.49489 C759.509181,279.825532 811.646969,275.127023 862.640948,266.743095 C963.488356,250.157384 1059.69047,219.29932 1159.91057,200.714017 C1249.46328,184.105704 1345.46987,176.258901 1434.44904,199.326002 C1435.97412,199.720868 1437.48454,200.146313 1439.00147,200.558463 L1439.00147,185.162669 C1362.53412,165.707863 1280.52045,167.502709 1201.65632,178.70521" id="Fill-4"></path>
                    <path d="M851.270096,189.282587 C851.263579,189.216472 851.250544,189.150358 851.242397,189.085593 C854.512515,188.597155 857.781003,188.106019 861.049491,187.595992 C857.792408,188.174832 854.532067,188.726685 851.270096,189.282587 M1227.64482,97.1526939 C1113.87341,109.038463 1002.64868,142.1281 889.46709,159.454149 C832.550425,168.166422 775.309518,172.431483 718.922393,168.621128 C660.516497,164.675846 604.051163,153.046439 548.667722,139.72504 C445.017867,114.799871 343.085354,83.3334123 232.396681,79.675526 C153.951334,77.0822181 71.3967522,88.2960483 0,123.234193 L0,163.782626 C1.01020074,163.337365 2.00573728,162.871865 3.02082609,162.437398 C96.6778404,122.330178 203.477241,125.892266 297.629579,142.50185 C409.950867,162.318662 514.700537,201.600125 629.420237,214.837868 C730.947041,226.554978 833.866944,210.912825 935.832045,189.134167 C1033.99912,168.166422 1132.4057,141.990474 1232.20376,134.967494 C1284.99001,131.254288 1337.55303,133.255263 1387.69973,143.651433 C1405.24137,147.287731 1422.35939,151.873919 1439.00163,157.320945 L1439.00163,106.221176 C1372.16219,90.1728908 1297.78208,89.8247777 1227.64482,97.1526939" id="Fill-7"></path>
                    <path d="M1246.94578,239.055543 C1138.95855,241.29323 1036.12659,269.167353 932.414787,291.014566 C876.997111,302.688526 820.733799,312.800252 763.510795,315.832433 C708.265831,318.760285 653.165879,314.260835 598.914822,305.679243 C491.036751,288.6137 386.961599,257.084108 277.854994,245.010226 C185.734431,234.815573 84.1196073,237.71935 0.000814678018,273.094341 L0.000814678018,321.76304 C36.6645967,305.562878 75.9109088,293.491671 116.740956,286.104494 C166.714952,277.061454 218.026649,275.757363 268.865834,279.705751 C364.983208,287.170505 457.437789,312.215752 550.288304,332.476654 C646.72992,353.520012 744.841627,368.935044 844.897157,359.200501 C957.956581,348.203331 1064.46762,313.177436 1175.9873,296.11323 C1262.0597,282.942573 1357.20434,280.072234 1439.0013,309.196947 L1439.0013,268.772782 C1380.02185,245.721792 1312.63004,237.693937 1246.94578,239.055543" id="Fill-10"></path>
                    <path d="M867.068821,428.190672 C867.062304,428.125907 867.049269,428.059792 867.041122,427.993678 C870.30961,427.50659 873.579728,427.014104 876.848216,426.505427 C873.591133,427.082917 870.329162,427.63612 867.068821,428.190672 M1243.44355,336.062152 C1129.67213,347.947918 1018.4474,381.037547 905.264185,398.362242 C848.349149,407.075862 791.108243,411.340922 734.721118,407.530568 C676.315222,403.585287 619.849888,391.955883 564.466447,378.634487 C460.816592,353.709324 358.884079,322.242873 248.193776,318.584988 C163.892524,315.797385 74.8449583,328.962265 0.000488806811,370.376922 L0.000488806811,410.131971 C6.17086012,407.025939 12.4357341,404.080471 18.8179217,401.34549 C112.476565,361.23963 219.274336,364.801716 313.428304,381.411296 C425.749592,401.226754 530.499262,440.509556 645.218962,453.747296 C746.745766,465.464404 849.665669,449.822254 951.63077,428.043601 C1049.79784,407.075862 1148.20443,380.899921 1248.00249,373.876942 C1300.78873,370.162387 1353.35176,372.163363 1403.49845,382.560879 C1415.53613,385.055689 1427.37666,388.001157 1439.00212,391.359503 L1439.00212,341.656247 C1376.36315,329.079652 1308.10128,329.30633 1243.44355,336.062152" id="Fill-13"></path>
                    <path d="M1217.45516,417.615162 C1115.95931,432.032438 1019.46559,462.481024 919.752256,482.776093 C868.223871,493.261989 815.668993,501.079546 762.457483,502.05807 C711.2289,502.998038 660.463054,497.047123 610.694374,487.469286 C511.341131,468.34818 416.659251,435.736471 316.931257,417.81326 C222.084812,400.768858 119.520109,395.670163 28.163745,427.010854 C18.5309921,430.316032 9.15893615,434.075905 0.000325871207,438.170816 L0.000325871207,454.13432 C1.42764176,454.135649 2.94131352,453.828531 4.48431368,453.113251 C90.2145109,413.367356 192.756404,413.513603 287.216691,427.993367 C386.208217,443.167139 479.809833,474.717894 576.880348,495.839922 C624.757346,506.258013 673.698313,514.187249 723.260065,516.404883 C775.308214,518.734195 827.445978,514.037014 878.439934,505.651753 C979.287296,489.067365 1075.48936,458.209288 1175.70943,439.623977 C1261.50154,423.712324 1353.21473,415.862859 1439.00196,435.511783 L1439.00196,420.367261 C1367.10662,404.908973 1290.91304,407.179787 1217.45516,417.615162" id="Fill-16"></path>
                </g>
            </g>
        </g>
    </g>
</svg>