<?xml version="1.0" encoding="UTF-8"?>
<svg width="117px" height="120px" viewBox="0 0 117 120" version="1.1" xmlns="http://www.w3.org/2000/svg" xmlns:xlink="http://www.w3.org/1999/xlink">
    <title>logo-sm</title>
    <defs>
        <polygon id="path-1" points="0 120 117 120 117 0 0 0"></polygon>
    </defs>
    <g id="otros" stroke="none" stroke-width="1" fill="none" fill-rule="evenodd">
        <g id="Desktop-HD" transform="translate(-240.000000, -647.000000)">
            <g id="logo-sm" transform="translate(240.000000, 647.000000)">
                <path d="M39.9750325,22.9684601 C39.3244048,24.4448784 38.4478106,25.7299092 37.337458,26.8157407 C36.2310013,27.9015721 34.9297459,28.7530515 33.4414838,29.3662728 C31.9532217,29.9834001 30.3714562,30.2880578 28.6922913,30.2880578 C26.9936466,30.2880578 25.3962972,29.9834001 23.911931,29.3662728 C22.4236689,28.7530515 21.1224135,27.9015721 20.0159568,26.8157407 C18.9056042,25.7299092 18.02901,24.4526902 17.3783823,22.9879895 C16.7277547,21.5193829 16.4043888,19.9257885 16.4043888,18.1993946 C16.4043888,16.5003418 16.7238587,14.9067474 17.3627984,13.4303291 C17.9978422,11.9539108 18.8744364,10.6727859 19.9808931,9.58304853 C21.0912457,8.49721707 22.3847091,7.64964359 23.8768672,7.03251636 C25.3651294,6.41929499 26.9585828,6.10682551 28.6611235,6.10682551 C30.3402884,6.10682551 31.9259499,6.41929499 33.4258999,7.03251636 C34.92585,7.64964359 36.2310013,8.49721707 37.337458,9.58304853 C38.4478106,10.6727859 39.3244048,11.9539108 39.9750325,13.4303291 C40.6256602,14.9067474 40.949026,16.5003418 40.949026,18.1993946 C40.949026,19.9023533 40.6256602,21.4920418 39.9750325,22.9684601 M37.7932869,14.3521141 C37.2751224,13.1569183 36.5699511,12.1023338 35.677773,11.1961722 C34.7778029,10.2900107 33.7375778,9.57523679 32.5376178,9.04403867 C31.3415537,8.52065228 30.0597782,8.25505322 28.6922913,8.25505322 C27.3053245,8.25505322 26.0079651,8.51674641 24.7963171,9.03232106 C23.5924611,9.54398984 22.5444441,10.2587638 21.6600579,11.1610194 C20.7756718,12.0710868 20.0782924,13.1256713 19.5601279,14.3364906 C19.0458593,15.5473098 18.788725,16.8362465 18.788725,18.1993946 C18.788725,19.5898838 19.0458593,20.8827263 19.5601279,22.0779221 C20.0782924,23.2770237 20.7756718,24.3316082 21.6600579,25.2377697 C22.5444441,26.1439313 23.5846692,26.8547993 24.7807332,27.370374 C25.9767973,27.8820428 27.2702607,28.1398301 28.6611235,28.1398301 C30.0247145,28.1398301 31.3142819,27.8781369 32.5220339,27.3508446 C33.7297859,26.8274583 34.7778029,26.1165902 35.677773,25.2182404 C36.5699511,24.3237965 37.2751224,23.269212 37.7932869,22.0622986 C38.3075555,20.8514793 38.5646898,19.5664486 38.5646898,18.1993946 C38.5646898,16.8362465 38.3075555,15.5512157 37.7932869,14.3521141" id="Fill-2" fill="#7F398E"></path>
                <path d="M64.6521328,30.1568206 L63.6742433,30.1568206 L47.4591988,10.979006 L47.4591988,29.6842105 L45.2112217,29.9224685 L45.2112217,6.31149302 L46.220279,6.24118738 C48.8812294,9.51430524 51.5811395,12.7093057 54.3083214,15.8300947 C57.0393993,18.9547896 59.7393094,22.1380725 62.4002597,25.3877551 L62.4002597,6.51069232 L64.6521328,6.2763402 L64.6521328,30.1568206 Z" id="Fill-4" fill="#7F398E"></path>
                <path d="M69.5524891,6.54584513 L76.7016017,6.54584513 C78.6924445,6.54584513 80.4378409,6.88174983 81.9377909,7.55355922 C83.437741,8.22536862 84.6844527,9.10418904 85.6818221,10.1900205 C86.6791915,11.275852 87.4272185,12.5179182 87.9297992,13.9162191 C88.4362758,15.3184259 88.6817222,16.744068 88.6700343,18.2009569 C88.6583464,19.6578459 88.4012121,21.0834879 87.8986314,22.4817889 C87.3960507,23.8839957 86.6441277,25.122156 85.6506543,26.2079875 C84.6532849,27.2977248 83.4065732,28.1726394 81.8910393,28.8483547 C80.3755053,29.5162582 78.6262129,29.8560687 76.6353701,29.8560687 L69.5524891,29.8560687 L69.5524891,6.54584513 Z M71.7692984,27.7703349 L76.1678532,27.7703349 C77.5976757,27.7703349 78.9300989,27.5555122 80.1651227,27.1180549 C81.3884586,26.6805976 82.4559555,26.0478469 83.3481336,25.2198028 C84.2442077,24.3917586 84.9532749,23.3879504 85.4675435,22.2161898 C85.9818121,21.0366175 86.2389464,19.7125281 86.2389464,18.2322039 C86.2389464,16.7323504 86.001292,15.3887316 85.5376711,14.2013475 C85.0623622,13.0178693 84.3961506,12.0101553 83.5156605,11.1821111 C82.6468582,10.3501611 81.6027372,9.72131628 80.3988812,9.283859 C79.1911292,8.84640172 77.8431221,8.62767308 76.3665479,8.62767308 L71.7692984,8.62767308 L71.7692984,27.7703349 Z" id="Fill-6" fill="#7F398E"></path>
                <path d="M115.91614,22.9684601 C115.265512,24.4448784 114.385022,25.7299092 113.278565,26.8157407 C112.172109,27.9015721 110.874749,28.7530515 109.390383,29.3662728 C107.894329,29.9834001 106.312564,30.2880578 104.633399,30.2880578 C102.934754,30.2880578 101.337405,29.9834001 99.8530385,29.3662728 C98.3647764,28.7530515 97.063521,27.9015721 95.9570644,26.8157407 C94.8467117,25.7299092 93.9701175,24.4526902 93.3233858,22.9879895 C92.6727581,21.5193829 92.3454963,19.9257885 92.3454963,18.1993946 C92.3454963,16.5003418 92.6649662,14.9067474 93.3078019,13.4303291 C93.9467417,11.9539108 94.8155439,10.6727859 95.9220006,9.58304853 C97.0284573,8.49721707 98.3297126,7.64964359 99.8179748,7.03251636 C101.306237,6.41929499 102.89969,6.10682551 104.602231,6.10682551 C106.281396,6.10682551 107.870953,6.41929499 109.370903,7.03251636 C110.866957,7.64964359 112.172109,8.49721707 113.278565,9.58304853 C114.385022,10.6727859 115.265512,11.9539108 115.91614,13.4303291 C116.566768,14.9067474 116.890134,16.5003418 116.890134,18.1993946 C116.890134,19.9023533 116.566768,21.4920418 115.91614,22.9684601 M113.734394,14.3521141 C113.220126,13.1569183 112.514955,12.1023338 111.61888,11.1961722 C110.726702,10.2900107 109.678685,9.57523679 108.482621,9.04403867 C107.282661,8.52065228 106.000886,8.25505322 104.633399,8.25505322 C103.246432,8.25505322 101.949073,8.51674641 100.737425,9.03232106 C99.5335686,9.54398984 98.4855516,10.2587638 97.6050614,11.1610194 C96.7167793,12.0710868 96.015504,13.1256713 95.5051314,14.3364906 C94.9908628,15.5473098 94.7337285,16.8362465 94.7337285,18.1993946 C94.7337285,19.5898838 94.9908628,20.8827263 95.5051314,22.0779221 C96.015504,23.2770237 96.7167793,24.3316082 97.6050614,25.2377697 C98.4855516,26.1439313 99.5296727,26.8547993 100.725737,27.370374 C101.925697,27.8820428 103.215264,28.1398301 104.602231,28.1398301 C105.965822,28.1398301 107.255389,27.8781369 108.463141,27.3508446 C109.670893,26.8274583 110.726702,26.1165902 111.61888,25.2182404 C112.514955,24.3237965 113.220126,23.269212 113.734394,22.0622986 C114.248663,20.8514793 114.505797,19.5664486 114.505797,18.1993946 C114.505797,16.8362465 114.248663,15.5512157 113.734394,14.3521141" id="Fill-8" fill="#7F398E"></path>
                <path d="M2.09019014,48.5511181 L2.09019014,34.8258959 L6.85107056,34.8258959 C7.87571176,34.8258959 8.79126569,34.9938483 9.60942027,35.3258471 C10.4197829,35.6617518 11.1210582,36.130456 11.6937664,36.7397715 C12.2703706,37.3451811 12.7145117,38.0716727 13.0261896,38.9153403 C13.3417635,39.7590079 13.4976025,40.6886046 13.4976025,41.7080363 C13.4976025,42.6727859 13.3417635,43.5750415 13.0261896,44.4030856 C12.7145117,45.2350356 12.2703706,45.9537155 11.6937664,46.5669368 C11.1210582,47.1840641 10.4197829,47.6683918 9.60942027,48.0199199 C8.79126569,48.3714481 7.87571176,48.5511181 6.85107056,48.5511181 L2.09019014,48.5511181 Z M4.79789218,45.8248218 L6.85107056,45.8248218 C7.41598681,45.8248218 7.93804735,45.7193633 8.40946022,45.5123523 C8.88866505,45.3014354 9.30163831,45.0124011 9.65617196,44.6374378 C10.0107056,44.2663802 10.2834238,43.8250171 10.4782225,43.3250659 C10.6730212,42.8212089 10.7743165,42.282199 10.7743165,41.7080363 C10.7743165,41.1338736 10.6730212,40.5948638 10.4782225,40.0910067 C10.2834238,39.5871497 10.0107056,39.1496924 9.65617196,38.774729 C9.30163831,38.4036715 8.88866505,38.1107314 8.40946022,37.8959086 C7.93804735,37.6810858 7.41598681,37.5717215 6.85107056,37.5717215 L4.79789218,37.5717215 L4.79789218,45.8248218 Z" id="Fill-10" fill="#7F398E"></path>
                <polygon id="Fill-12" fill="#7F398E" points="19.6107755 37.5525828 19.6107755 40.3179377 24.056082 40.3179377 24.056082 43.0598574 19.6107755 43.0598574 19.6107755 45.8252124 25.7040791 45.8252124 25.7040791 48.5515086 16.8874896 48.5515086 16.8874896 34.8262865 25.7040791 34.8262865 25.7040791 37.5525828"></polygon>
                <path d="M39.3018081,34.6899717 L45.4730312,48.5518992 L42.4731311,48.5518992 L41.3627785,46.0404257 L36.1304852,46.0404257 C35.9590623,46.4349185 35.7759515,46.8528464 35.5694649,47.3059272 C35.3668742,47.755102 35.1915554,48.1691241 35.0318205,48.5518992 L32.0552962,48.5518992 L38.1447038,34.6899717 L39.3018081,34.6899717 Z M40.1433386,43.3180353 L38.7329959,40.1386583 L37.3226533,43.3180353 L40.1433386,43.3180353 Z" id="Fill-14" fill="#7F398E"></path>
                <path d="M57.6210682,38.5899814 C57.6210682,39.0352505 57.5197729,39.5156723 57.3171822,40.0312469 C57.1184876,40.5468216 56.7366821,40.9999024 56.1834538,41.3943951 C56.5224035,41.5506298 56.8107056,41.7459232 57.056152,41.9841812 C57.3054943,42.2185333 57.508085,42.4685089 57.6639239,42.7380139 C57.8158669,43.0036129 57.9366421,43.2848355 58.0145616,43.5699639 C58.0924811,43.8589981 58.1314408,44.1363148 58.1314408,44.4136315 C58.1314408,44.9213944 58.0535214,45.4213456 57.9054743,45.913485 C57.7574273,46.4017186 57.504189,46.8430817 57.1418634,47.2336686 C56.7834338,47.6281613 56.3081249,47.9445367 55.7159369,48.1867005 C55.1237488,48.4288644 54.3835137,48.5499463 53.4952316,48.5499463 L47.9395724,48.5499463 L47.9395724,34.82863 L53.436792,34.82863 C54.0250841,34.82863 54.5705205,34.9340885 55.0769971,35.1410995 C55.5912657,35.3481105 56.0315108,35.6293331 56.4094203,35.9730495 C56.7873298,36.3206718 57.0873198,36.7229763 57.2977024,37.1799629 C57.5158769,37.6369495 57.6210682,38.1095596 57.6210682,38.5899814 L57.6210682,38.5899814 Z M50.6628584,40.17967 L53.132906,40.17967 C53.6199028,40.17967 54.0095002,40.0663998 54.3016982,39.8359535 C54.5977923,39.6055073 54.7419433,39.3047554 54.7419433,38.9219803 C54.7419433,38.5470169 54.5977923,38.2228298 54.3016982,37.9533249 C54.0095002,37.6877258 53.6199028,37.5510204 53.132906,37.5510204 L50.6628584,37.5510204 L50.6628584,40.17967 Z M53.1523859,45.82365 C53.8965169,45.82365 54.4341614,45.6830388 54.7614232,45.4018162 C55.088685,45.1205937 55.2523159,44.7925007 55.2523159,44.4136315 C55.2523159,44.2183381 55.2172522,44.0269505 55.1510206,43.8433747 C55.088685,43.6597988 54.9757018,43.4996582 54.8198628,43.3629528 C54.6601279,43.2262474 54.4497453,43.1129772 54.1692351,43.030954 C53.8965169,42.9450249 53.5575672,42.9020603 53.1523859,42.9020603 L50.6628584,42.9020603 L50.6628584,45.82365 L53.1523859,45.82365 Z" id="Fill-16" fill="#7F398E"></path>
                <path d="M67.3419134,48.6846988 C66.4809031,48.6846988 65.6393726,48.5245581 64.8134261,48.1964652 C63.9913756,47.8683722 63.2550365,47.4074797 62.6083048,46.8137877 C61.961573,46.2200957 61.4434085,45.49751 61.0499151,44.6577483 C60.6603177,43.8140807 60.461623,42.8688605 60.461623,41.8259936 C60.461623,40.9237379 60.6330459,40.0527292 60.9797876,39.2168734 C61.3304252,38.3810175 61.8057341,37.6467142 62.421298,37.0100576 C63.0368619,36.3812128 63.7615131,35.8734499 64.5991475,35.4945806 C65.432886,35.1157114 66.3484399,34.9243238 67.3419134,34.9243238 C68.2185075,34.9243238 69.0678299,35.096182 69.8976724,35.4359926 C70.7275149,35.7758031 71.459958,36.2523191 72.0911059,36.8655405 C72.7261496,37.4787618 73.2365223,38.2052534 73.6222237,39.048921 C74.0040292,39.8964945 74.1949319,40.8182795 74.1949319,41.8259936 C74.1949319,42.7126257 74.031301,43.5680109 73.6884553,44.3921492 C73.3495055,45.2162875 72.8780926,45.9505908 72.2664247,46.5872473 C71.6625487,47.2278098 70.9340015,47.7394786 70.0924711,48.1144419 C69.2509407,48.4972171 68.3314908,48.6846988 67.3419134,48.6846988 M67.3419134,37.6115614 C66.7536213,37.6115614 66.2042889,37.7209257 65.6939163,37.9435602 C65.1835437,38.1661947 64.7432986,38.4708525 64.3614931,38.8575334 C63.9796877,39.2403086 63.6835936,39.6894834 63.4615231,40.1972464 C63.2394526,40.7089151 63.1264693,41.2518309 63.1264693,41.8259936 C63.1264693,42.4001562 63.2394526,42.943072 63.4615231,43.4508349 C63.6835936,43.9625037 63.9796877,44.4038668 64.3614931,44.7866419 C64.7432986,45.1655112 65.1874396,45.4623572 65.7017082,45.67718 C66.2237688,45.8920027 66.7653092,46.0013671 67.3419134,46.0013671 C67.9146216,46.0013671 68.452266,45.8880969 68.9548467,45.6654624 C69.4613233,45.4467337 69.9015684,45.142076 70.2794779,44.7632067 C70.6573874,44.3882433 70.9612734,43.9468802 71.1794479,43.4430231 C71.4054144,42.9391661 71.5145017,42.4001562 71.5145017,41.8259936 C71.5145017,41.2518309 71.4054144,40.7089151 71.1794479,40.1972464 C70.9612734,39.6894834 70.6573874,39.2403086 70.26779,38.8575334 C69.8859845,38.4708525 69.4379475,38.1661947 68.9353668,37.9435602 C68.4327861,37.7209257 67.9068296,37.6115614 67.3419134,37.6115614" id="Fill-18" fill="#7F398E"></path>
                <path d="M89.0931371,48.5511181 L85.7620792,48.5511181 L82.0336319,43.3172542 L80.3895308,43.3172542 L80.3895308,48.5511181 L77.6896207,48.5511181 L77.6896207,34.8258959 L83.229696,34.8258959 C83.8063002,34.8258959 84.3478406,34.9391661 84.8582132,35.1618006 C85.3685858,35.3844351 85.8166228,35.6890929 86.2023243,36.071868 C86.5880257,36.458549 86.8919117,36.9077239 87.1217742,37.4154868 C87.3516366,37.9271556 87.4646199,38.4739772 87.4646199,39.0637633 C87.4646199,39.9230544 87.2425494,40.7003222 86.7984083,41.3838492 C86.3542673,42.0712821 85.7698711,42.579045 85.0530119,42.9032321 L89.0931371,48.5511181 Z M82.7232193,40.6104873 C83.4167027,40.6104873 83.9270754,40.4581584 84.2504412,40.1495948 C84.577703,39.8410311 84.737438,39.4816912 84.737438,39.0637633 C84.737438,38.6419295 84.577703,38.2864955 84.2504412,37.9935553 C83.9270754,37.7006152 83.4167027,37.5521922 82.7232193,37.5521922 L80.3895308,37.5521922 L80.3895308,40.6104873 L82.7232193,40.6104873 Z" id="Fill-20" fill="#7F398E"></path>
                <polygon id="Fill-22" fill="#7F398E" points="100.260168 37.5525828 96.4966568 37.5525828 96.4966568 48.5515086 93.7733709 48.5515086 93.7733709 37.5525828 89.9709001 37.5525828 89.9709001 34.8262865 100.260168 34.8262865"></polygon>
                <path d="M108.546515,48.6846988 C107.689401,48.6846988 106.840079,48.5245581 106.018028,48.1964652 C105.195977,47.8683722 104.463534,47.4074797 103.816803,46.8137877 C103.170071,46.2200957 102.651906,45.49751 102.258413,44.6577483 C101.868816,43.8140807 101.670121,42.8688605 101.670121,41.8259936 C101.670121,40.9237379 101.841544,40.0527292 102.188285,39.2168734 C102.538923,38.3810175 103.014232,37.6467142 103.629796,37.0100576 C104.241464,36.3812128 104.970011,35.8734499 105.803749,35.4945806 C106.641384,35.1157114 107.556938,34.9243238 108.546515,34.9243238 C109.427005,34.9243238 110.276328,35.096182 111.10617,35.4359926 C111.936013,35.7758031 112.66456,36.2523191 113.299604,36.8655405 C113.934648,37.4787618 114.441124,38.2052534 114.826826,39.048921 C115.212527,39.8964945 115.407326,40.8182795 115.407326,41.8259936 C115.407326,42.7126257 115.235903,43.5680109 114.896953,44.3921492 C114.554107,45.2162875 114.086591,45.9505908 113.474923,46.5872473 C112.867151,47.2278098 112.142499,47.7394786 111.300969,48.1144419 C110.459439,48.4972171 109.539989,48.6846988 108.546515,48.6846988 M108.546515,37.6115614 C107.962119,37.6115614 107.408891,37.7209257 106.902414,37.9435602 C106.392042,38.1661947 105.947901,38.4708525 105.569991,38.8575334 C105.188186,39.2403086 104.892092,39.6894834 104.666125,40.1972464 C104.444054,40.7089151 104.334967,41.2518309 104.334967,41.8259936 C104.334967,42.4001562 104.444054,42.943072 104.666125,43.4508349 C104.892092,43.9625037 105.188186,44.4038668 105.569991,44.7866419 C105.947901,45.1655112 106.395938,45.4623572 106.910206,45.67718 C107.424475,45.8920027 107.973807,46.0013671 108.546515,46.0013671 C109.123119,46.0013671 109.660764,45.8880969 110.163345,45.6654624 C110.665925,45.4467337 111.110066,45.142076 111.487976,44.7632067 C111.865885,44.3882433 112.165875,43.9468802 112.387946,43.4430231 C112.610016,42.9391661 112.723,42.4001562 112.723,41.8259936 C112.723,41.2518309 112.610016,40.7089151 112.387946,40.1972464 C112.165875,39.6894834 111.861989,39.2403086 111.476288,38.8575334 C111.094482,38.4708525 110.646445,38.1661947 110.143865,37.9435602 C109.641284,37.7209257 109.111432,37.6115614 108.546515,37.6115614" id="Fill-24" fill="#7F398E"></path>
                <path d="M4.18271786,66.846597 L1.45553595,66.846597 L1.45553595,53.1252807 L7.00340315,53.1252807 C7.57611135,53.1252807 8.11765176,53.2346451 8.62802437,53.4611854 C9.13839699,53.6799141 9.58643402,53.9845718 9.97213546,54.3712528 C10.3539409,54.7540279 10.6617229,55.2032028 10.8915854,55.7148716 C11.1214478,56.2226345 11.2344311,56.7694561 11.2344311,57.3592423 C11.2344311,57.9451225 11.1253438,58.5036618 10.9032733,59.0270481 C10.6773068,59.5465287 10.3773168,59.9996094 9.99161533,60.3784787 C9.60591389,60.7573479 9.15398089,61.0580998 8.6397123,61.2807343 C8.12154773,61.5033688 7.57611135,61.6127331 7.00340315,61.6127331 L4.18271786,61.6127331 L4.18271786,66.846597 Z M4.18271786,58.9059662 L6.49303054,58.9059662 C7.18651394,58.9059662 7.69299058,58.7536373 8.02025241,58.4489796 C8.34751424,58.140416 8.51114515,57.7771702 8.51114515,57.3592423 C8.51114515,56.9413143 8.34751424,56.5858803 8.02025241,56.2890343 C7.69299058,55.9960941 7.18651394,55.8476711 6.49303054,55.8476711 L4.18271786,55.8476711 L4.18271786,58.9059662 Z" id="Fill-26" fill="#7F398E"></path>
                <path d="M18.2125104,52.9874036 L24.3837335,66.8454253 L21.3838334,66.8454253 L20.2695848,64.3378576 L15.0372915,64.3378576 C14.8658686,64.7284445 14.6827578,65.1502783 14.4801672,65.5994532 C14.2775765,66.0525339 14.0944657,66.4704619 13.9425227,66.8454253 L10.9621025,66.8454253 L17.0554061,52.9874036 L18.2125104,52.9874036 Z M19.0540408,61.6115614 L17.6436982,58.4360902 L16.2333555,61.6115614 L19.0540408,61.6115614 Z" id="Fill-28" fill="#7F398E"></path>
                <path d="M38.2744397,66.846597 L34.9433818,66.846597 L31.2227265,61.6127331 L29.5747294,61.6127331 L29.5747294,66.846597 L26.8709234,66.846597 L26.8709234,53.1252807 L32.4187906,53.1252807 C32.9876028,53.1252807 33.5330392,53.2346451 34.0434118,53.4611854 C34.5498884,53.6799141 35.0018215,53.9845718 35.3836269,54.3712528 C35.7693284,54.7540279 36.0810063,55.2032028 36.3030768,55.7148716 C36.5329393,56.2226345 36.6459225,56.7694561 36.6459225,57.3592423 C36.6459225,58.2185333 36.427748,58.9958012 35.979711,59.6832341 C35.5394659,60.3667611 34.9550698,60.874524 34.2382105,61.2026169 L38.2744397,66.846597 Z M31.904522,58.9059662 C32.6019014,58.9059662 33.108378,58.7536373 33.4356398,58.4489796 C33.7629017,58.140416 33.9265326,57.7771702 33.9265326,57.3592423 C33.9265326,56.9413143 33.7629017,56.5858803 33.4356398,56.2890343 C33.108378,55.9960941 32.6019014,55.8476711 31.904522,55.8476711 L29.5747294,55.8476711 L29.5747294,58.9059662 L31.904522,58.9059662 Z" id="Fill-30" fill="#7F398E"></path>
                <path d="M46.5857214,52.9874036 L52.7569445,66.8454253 L49.7570444,66.8454253 L48.6427958,64.3378576 L43.4105025,64.3378576 C43.2429756,64.7284445 43.0520729,65.1502783 42.8494822,65.5994532 C42.6507875,66.0525339 42.4676767,66.4704619 42.3157337,66.8454253 L39.3353135,66.8454253 L45.4286171,52.9874036 L46.5857214,52.9874036 Z M47.4272518,61.6115614 L46.0169092,58.4360902 L44.6065665,61.6115614 L47.4272518,61.6115614 Z" id="Fill-32" fill="#7F398E"></path>
                <polygon id="Fill-34" fill="#7F398E" points="68.156172 66.846597 59.9083947 66.846597 59.9083947 53.1252807 62.6316806 53.1252807 62.6316806 64.1203008 68.156172 64.1203008"></polygon>
                <path d="M76.7393926,52.9874036 L82.9106157,66.8454253 L79.9107156,66.8454253 L78.796467,64.3378576 L73.5680697,64.3378576 C73.3966468,64.7284445 73.2057441,65.1502783 73.0070494,65.5994532 C72.8044587,66.0525339 72.6213479,66.4704619 72.4694049,66.8454253 L69.4889847,66.8454253 L75.5822883,52.9874036 L76.7393926,52.9874036 Z M77.580923,61.6115614 L76.1705804,58.4360902 L74.7602378,61.6115614 L77.580923,61.6115614 Z" id="Fill-36" fill="#7F398E"></path>
                <polygon id="Fill-38" fill="#7F398E" points="0.0716859245 111.268431 3.4378076 85.4936041 15.8309014 103.058295 28.2084113 85.4936041 31.570637 111.268431 26.6149579 111.268431 24.9513769 98.5235817 15.8309014 110.772386 6.694842 98.5235817 5.03126103 111.268431"></polygon>
                <path d="M33.4387566,111.268431 L45.6487396,85.5834391 L57.8587227,111.268431 L52.4744864,111.268431 L50.5537711,107.225857 L40.7398122,107.225857 L38.8229929,111.268431 L33.4387566,111.268431 Z M48.7733109,103.468411 L47.2655689,100.289034 C46.9188272,99.5820721 46.3850788,98.3282883 45.6487396,96.5394004 C45.4695248,96.9221756 45.2084946,97.5314911 44.8695448,98.3712528 C44.5305951,99.1953911 44.2656688,99.82033 44.0708701,100.242164 L42.5202724,103.468411 L48.7733109,103.468411 Z" id="Fill-40" fill="#7F398E"></path>
                <path d="M60.9158936,111.268431 L60.9158936,86.6497412 L70.2701275,86.6497412 L70.2701275,86.6302119 C72.6232959,86.6302119 74.6336186,87.1340689 76.2816157,88.1456889 C77.7854617,89.0596621 78.9036063,90.3173518 79.6243615,91.9031345 C80.1814858,93.1022361 80.446412,94.3794551 80.4269322,95.7386974 C80.4152442,97.0745044 80.1308381,98.3478176 79.5776098,99.5625427 C78.5451767,101.839664 76.7179648,103.468411 74.0920782,104.456596 C74.6803703,104.733913 75.2647664,105.198711 75.8413706,105.843179 L80.5788752,111.268431 L74.0414305,111.268431 L68.8091372,105.288546 L65.8365089,105.288546 L65.8365089,111.268431 L60.9158936,111.268431 Z M65.8365089,91.5398887 L65.8365089,100.394493 L70.2701275,100.394493 C72.6349839,100.394493 74.2518131,99.4453667 75.1128234,97.5353969 C75.3816456,96.9260814 75.5219007,96.3128601 75.5335886,95.691827 C75.5335886,95.066888 75.4167094,94.4849136 75.179055,93.9537155 C74.4427159,92.3562152 72.8064067,91.559418 70.2701275,91.559418 L70.2701275,91.5398887 L65.8365089,91.5398887 Z" id="Fill-42" fill="#7F398E"></path>
                <mask id="mask-2" fill="white">
                    <use xlink:href="#path-1"></use>
                </mask>
                <g id="Clip-45"></g>
                <polygon id="Fill-44" fill="#7F398E" mask="url(#mask-2)" points="84.3634245 111.266478 89.2879358 111.266478 89.2879358 86.628259 84.3634245 86.628259"></polygon>
                <path d="M92.5138024,111.268431 L104.723785,85.5834391 L116.933768,111.268431 L111.549532,111.268431 L109.636609,107.225857 L99.818754,107.225857 L97.8980387,111.268431 L92.5138024,111.268431 Z M107.856149,103.468411 L106.336719,100.289034 C105.997769,99.5820721 105.460125,98.3282883 104.723785,96.5394004 C104.544571,96.9221756 104.28354,97.5314911 103.944591,98.3712528 C103.601745,99.1953911 103.336819,99.82033 103.145916,100.242164 L101.599214,103.468411 L107.856149,103.468411 Z" id="Fill-46" fill="#7F398E" mask="url(#mask-2)"></path>
                <path d="M4.93970564,71.8207206 C4.93970564,71.6137096 5.01372915,71.4418514 5.15398422,71.305146 C5.29813526,71.1723465 5.46955812,71.0981349 5.67994073,71.0981349 C5.88253138,71.0981349 6.05395425,71.1723465 6.19031334,71.3129577 C6.32667244,71.453569 6.38900803,71.6254272 6.38900803,71.8363441 L6.38900803,78.2380627 C6.38900803,79.0192364 6.20589724,79.6519871 5.83188372,80.1402207 C5.42280643,80.6831364 4.84230628,80.9526413 4.09038327,80.9526413 C3.7241617,80.9526413 3.38131597,80.8979592 3.06184609,80.7964066 L2.74627219,80.6909481 C2.26706736,80.4761254 1.9748693,80.2417733 1.87746995,79.9957035 C1.84630215,79.894151 1.82682228,79.8082219 1.82682228,79.7261986 C1.82682228,79.566058 1.87746995,79.4215409 1.98266125,79.2965531 C2.08785255,79.179377 2.22421165,79.1129772 2.38394659,79.1129772 C2.46965802,79.0973538 2.58653724,79.1129772 2.72679231,79.1676594 L2.87094336,79.2262474 L3.17872532,79.4332585 L3.35014818,79.5309052 C3.54494689,79.6363636 3.72805767,79.6871399 3.90337651,79.6871399 C4.26959808,79.6871399 4.55010822,79.5504345 4.75659485,79.2731179 C4.87737005,79.1051655 4.93970564,78.8669075 4.93970564,78.5583439 L4.93970564,71.8207206 Z" id="Fill-47" fill="#7F398E" mask="url(#mask-2)"></path>
                <path d="M9.15748726,71.8738404 C9.15748726,71.6668294 9.23151077,71.4910653 9.37176584,71.3504541 C9.51591689,71.2137487 9.68733975,71.1395372 9.89772235,71.1395372 C10.100313,71.1395372 10.2717359,71.2137487 10.408095,71.3504541 C10.5405581,71.4910653 10.6067897,71.6668294 10.6067897,71.8738404 L10.6067897,77.2561273 C10.6067897,77.7599844 10.7392528,78.2325945 11.004179,78.6739576 C11.308065,79.1817205 11.6898705,79.4707548 12.1573874,79.5566839 C12.5002331,79.6230837 12.7106157,79.6621424 12.7768473,79.6621424 L13.2054044,79.6621424 C13.3105957,79.642613 13.3846192,79.6308954 13.4274749,79.6308954 C14.7248343,79.3965433 15.375462,78.603652 15.375462,77.2561273 L15.375462,71.8738404 C15.375462,71.6551118 15.4377976,71.4793477 15.5741567,71.3426423 C15.7105158,71.2098428 15.8858346,71.1395372 16.0962172,71.1395372 C16.3027039,71.1395372 16.4780227,71.2137487 16.6182778,71.3504541 C16.7507409,71.4910653 16.8247644,71.6668294 16.8247644,71.8738404 L16.8247644,77.2717508 C16.8247644,78.068548 16.5949019,78.8067572 16.1429689,79.4863783 C15.6481802,80.236305 15.0209284,80.6698565 14.2651094,80.7909384 C13.6651294,80.892491 13.2404682,80.9354555 12.9911258,80.9354555 L12.5781526,80.9354555 C11.6742866,80.744068 11.2028737,80.6425154 11.1678099,80.6307978 C10.8054843,80.4901865 10.4119909,80.1738112 9.99512171,79.6777658 C9.4379974,79.0411093 9.15748726,78.2365003 9.15748726,77.2717508 L9.15748726,71.8738404 Z" id="Fill-48" fill="#7F398E" mask="url(#mask-2)"></path>
                <path d="M19.0988445,79.4605996 C19.18066,79.1129772 19.3871466,78.941119 19.7222004,78.941119 C19.8819353,78.941119 20.0260864,78.972366 20.1507576,79.0348599 L20.4702274,79.1950005 L20.6143785,79.2614003 C21.0857913,79.4723172 21.5416203,79.5816815 21.9896574,79.5816815 C22.4844461,79.5816815 22.9013153,79.4254467 23.2402651,79.120789 C23.5753188,78.8161312 23.7428457,78.4138268 23.7428457,77.9177815 C23.7428457,77.2850308 23.3181845,76.8280441 22.4688622,76.5468216 L21.3117579,76.1601406 C20.7585295,75.9726589 20.3027005,75.7383068 19.9520629,75.4531784 C19.7183044,75.2774143 19.5351936,75.0274387 19.3988345,74.7071575 C19.2624754,74.3868763 19.1923479,74.0744068 19.1923479,73.7619373 C19.1923479,72.9221756 19.5196097,72.254272 20.1780294,71.7660385 C20.7702174,71.3129577 21.4598049,71.0864173 22.2428957,71.0864173 C22.7104126,71.0864173 23.1701375,71.1684406 23.6220705,71.3402988 C24.2960741,71.5980861 24.6389198,71.9144615 24.6389198,72.285519 C24.6389198,72.7346939 24.4168493,72.9651401 23.9843961,72.9651401 C23.8675169,72.9651401 23.7545336,72.937799 23.6376544,72.8831169 L23.3454564,72.7503174 L23.1350738,72.6448589 L22.9870267,72.5901767 L22.8117079,72.523777 C22.6247011,72.4534713 22.4143185,72.4183185 22.1727681,72.4183185 C21.8104425,72.4183185 21.4831807,72.5276828 21.1870867,72.7503174 C20.8676168,72.9963871 20.7078819,73.297139 20.7078819,73.6408554 C20.7078819,74.1134655 20.9961839,74.4688995 21.5611002,74.7071575 C21.6779794,74.7540279 21.9000499,74.8360512 22.2273118,74.961039 L22.6558689,75.1211796 L23.0104026,75.2383556 C24.4947687,75.7383068 25.2350038,76.5858803 25.2350038,77.7810761 L25.2350038,78.1286984 L25.1415004,78.5934967 C24.9817655,79.3199883 24.5687922,79.9175862 23.9064766,80.3784787 C23.3766242,80.7456303 22.7649562,80.9253003 22.0519929,80.9253003 C21.1520229,80.9253003 20.4000999,80.7651597 19.8040159,80.4448784 C19.3598748,80.2144322 19.1222204,79.952739 19.0871566,79.6597988 L19.0988445,79.4605996 Z" id="Fill-49" fill="#7F398E" mask="url(#mask-2)"></path>
                <path d="M31.7019313,71.2215604 C31.8889381,71.2215604 32.0447771,71.2840543 32.1694482,71.412948 C32.2941194,71.5418416 32.356455,71.6941705 32.356455,71.8777463 C32.356455,72.065228 32.2902234,72.2175569 32.1616563,72.3425447 C32.0330891,72.4597207 31.8772502,72.5261205 31.6902434,72.5261205 L29.948743,72.5261205 L29.948743,80.1816229 C29.948743,80.3847281 29.8786154,80.5565863 29.7500483,80.6932917 C29.6136892,80.8299971 29.4461623,80.9003027 29.2396757,80.9003027 C29.0292931,80.9003027 28.8578702,80.8299971 28.7215111,80.6932917 C28.589048,80.5565863 28.5228164,80.3808222 28.5228164,80.1699053 L28.5228164,72.5261205 L26.7930039,72.5261205 C26.6021012,72.5261205 26.4540541,72.4558149 26.3332789,72.3347329 C26.2125037,72.2058393 26.1540641,72.0456987 26.1540641,71.8621228 C26.1540641,71.6746411 26.2163997,71.5184064 26.3371749,71.4012303 C26.4657421,71.2801484 26.621581,71.2215604 26.8046918,71.2215604 L31.7019313,71.2215604 Z" id="Fill-50" fill="#7F398E" mask="url(#mask-2)"></path>
                <path d="M34.7228697,71.8586076 C34.7228697,71.6555024 34.7968932,71.4836442 34.9410443,71.3469388 C35.0812993,71.2102334 35.2566182,71.1360219 35.4631048,71.1360219 C35.6579035,71.1360219 35.8254304,71.2141392 35.9656855,71.3547505 C36.1059405,71.4953618 36.1721721,71.6633141 36.1721721,71.8586076 L36.1721721,80.2210722 C36.1721721,80.4241773 36.1059405,80.5960355 35.9656855,80.7288351 C35.8254304,80.8694463 35.6540075,80.939752 35.4514169,80.939752 C35.2410343,80.939752 35.0696114,80.8694463 34.9293563,80.7288351 C34.7929972,80.5960355 34.7228697,80.4241773 34.7228697,80.2210722 L34.7228697,71.8586076 Z" id="Fill-51" fill="#7F398E" mask="url(#mask-2)"></path>
                <path d="M38.8109154,75.1352407 C38.9784423,73.9244214 39.4381672,72.9596719 40.1822983,72.2331804 C40.9692851,71.4598184 41.9588625,71.0770433 43.1471346,71.0770433 C43.7626985,71.0770433 44.3315108,71.17469 44.8652592,71.381701 C45.5938064,71.6551118 45.956132,72.0535104 45.956132,72.5651792 C45.956132,72.9713895 45.7613333,73.1784005 45.3717359,73.1784005 C45.2275848,73.1784005 45.0756418,73.135436 44.9198029,73.0612245 L44.8418834,73.0182599 L44.4912457,72.8034372 C44.3237188,72.6979787 44.1133362,72.6042379 43.8562019,72.5261205 L43.4549166,72.4440973 C43.2795977,72.4284738 43.1432387,72.420662 43.0536312,72.420662 C42.3913156,72.420662 41.7952316,72.6550142 41.2614831,73.135436 C40.7355266,73.611952 40.4316406,74.1861146 40.3537212,74.8423006 C40.2835936,75.424275 40.2446339,75.8187677 40.2446339,76.0140611 C40.2446339,77.2287863 40.5913756,78.1701006 41.284859,78.8458158 C41.7835437,79.3418611 42.4030036,79.5957426 43.1471346,79.5957426 C43.2289501,79.5957426 43.3808931,79.584025 43.6029636,79.5566839 C44.0626886,79.4980959 44.4328061,79.3848257 44.7055243,79.197344 L44.8224035,79.1153208 L45.0756418,78.9551802 L45.3717359,78.8340982 C45.4145916,78.8223806 45.4613433,78.8223806 45.500303,78.8223806 C45.6717259,78.8223806 45.8158769,78.8965921 45.9444441,79.0372034 C46.0652193,79.1739088 46.1275549,79.3340494 46.1275549,79.5176252 C46.1275549,79.7363539 46.0223636,79.939459 45.808085,80.1230349 C45.7457494,80.1816229 45.5470547,80.3105166 45.2120009,80.5292452 C44.7678599,80.8065619 44.0743765,80.951079 43.1354467,80.951079 C41.7796477,80.951079 40.6965669,80.4706572 39.8862043,79.5176252 C39.1264893,78.6114637 38.7446838,77.4670442 38.7446838,76.076555 C38.7446838,75.7562738 38.7641637,75.4398984 38.8109154,75.1352407" id="Fill-52" fill="#7F398E" mask="url(#mask-2)"></path>
                <path d="M48.0560621,71.8586076 C48.0560621,71.6555024 48.1300856,71.4836442 48.2742366,71.3469388 C48.4144917,71.2102334 48.5898105,71.1360219 48.7962972,71.1360219 C48.9910959,71.1360219 49.1586228,71.2141392 49.2988778,71.3547505 C49.4391329,71.4953618 49.5053645,71.6633141 49.5053645,71.8586076 L49.5053645,80.2210722 C49.5053645,80.4241773 49.4391329,80.5960355 49.2988778,80.7288351 C49.1586228,80.8694463 48.9871999,80.939752 48.7846092,80.939752 C48.5781226,80.939752 48.4028038,80.8694463 48.2664447,80.7288351 C48.1261896,80.5960355 48.0560621,80.4241773 48.0560621,80.2210722 L48.0560621,71.8586076 Z" id="Fill-53" fill="#7F398E" mask="url(#mask-2)"></path>
                <path d="M54.7524625,71.9656284 C54.966741,71.3953715 55.3095868,71.1024314 55.7771037,71.1024314 C56.2952682,71.1024314 56.6575938,71.3953715 56.8718724,71.9656284 L59.7860611,79.8711063 C59.8367087,80.0195293 59.8639806,80.1562347 59.8639806,80.3007519 C59.8639806,80.7264916 59.6224302,80.9374085 59.1432253,80.9374085 C58.8393393,80.9374085 58.6250608,80.7694561 58.5003896,80.4335514 L57.9198894,78.8204277 L53.7044454,78.8204277 L53.1161533,80.445269 C52.9953781,80.773362 52.7694116,80.9374085 52.4499417,80.9374085 C51.9746329,80.9374085 51.7330825,80.7030563 51.7330825,80.2343521 C51.7330825,80.1367054 51.7564583,80.0195293 51.8148979,79.8711063 L54.7524625,71.9656284 Z M57.4913323,77.5432087 L55.8160634,72.7311786 L54.1096267,77.5432087 L57.4913323,77.5432087 Z" id="Fill-54" fill="#7F398E" mask="url(#mask-2)"></path>
                <path d="M66.3149346,79.4605996 C66.39675,79.1129772 66.6032367,78.941119 66.9421864,78.941119 C67.0980254,78.941119 67.2421764,78.972366 67.3668476,79.0348599 L67.6863175,79.1950005 L67.8343645,79.2614003 C68.3057774,79.4723172 68.7577104,79.5816815 69.2057474,79.5816815 C69.7005361,79.5816815 70.1213013,79.4254467 70.4563551,79.120789 C70.7914089,78.8161312 70.9589358,78.4138268 70.9589358,77.9177815 C70.9589358,77.2850308 70.5342746,76.8280441 69.6849522,76.5468216 L68.5278479,76.1601406 C67.9785155,75.9726589 67.5265825,75.7383068 67.1720489,75.4531784 C66.9382904,75.2774143 66.7512837,75.0274387 66.6149246,74.7071575 C66.4785655,74.3868763 66.4084379,74.0744068 66.4084379,73.7619373 C66.4084379,72.9221756 66.7356998,72.254272 67.3941194,71.7660385 C67.9902035,71.3129577 68.6719989,71.0864173 69.4628817,71.0864173 C69.9265026,71.0864173 70.3862276,71.1684406 70.8420565,71.3402988 C71.5121641,71.5980861 71.8589058,71.9144615 71.8589058,72.285519 C71.8589058,72.7346939 71.6329393,72.9651401 71.2004862,72.9651401 C71.0913989,72.9651401 70.9706237,72.937799 70.8537445,72.8831169 L70.5654424,72.7503174 L70.3511638,72.6448589 L70.2031168,72.5901767 L70.0277979,72.523777 C69.8407912,72.4534713 69.6343046,72.4183185 69.3888582,72.4183185 C69.0265326,72.4183185 68.6992708,72.5276828 68.4031767,72.7503174 C68.0837068,72.9963871 67.9239719,73.297139 67.9239719,73.6408554 C67.9239719,74.1134655 68.208378,74.4688995 68.7771902,74.7071575 C68.8940695,74.7540279 69.120036,74.8360512 69.4434018,74.961039 L69.868063,75.1211796 L70.2264926,75.2383556 C71.7147548,75.7383068 72.4510939,76.5858803 72.4510939,77.7810761 L72.4510939,78.1286984 L72.3614865,78.5934967 C72.2017515,79.3199883 71.7848823,79.9175862 71.1186707,80.3784787 C70.6005061,80.7456303 69.9810463,80.9253003 69.2758749,80.9253003 C68.3681129,80.9253003 67.6161899,80.7651597 67.0278978,80.4448784 C66.5759648,80.2144322 66.3422064,79.952739 66.3032466,79.6597988 L66.3149346,79.4605996 Z" id="Fill-55" fill="#7F398E" mask="url(#mask-2)"></path>
                <path d="M78.6799774,71.0727468 C80.0007126,71.0727468 81.0604176,71.5766038 81.8590923,72.5765062 C82.6032233,73.5100088 82.9811328,74.6544283 82.9811328,76.0175764 C82.9811328,77.3807245 82.6071193,78.525144 81.8746762,79.4508349 C81.0760015,80.4507372 80.0085045,80.9506884 78.6799774,80.9506884 C77.9202624,80.9506884 77.2774267,80.8217947 76.7514701,80.5601016 C76.2294096,80.2984084 75.7385169,79.8531393 75.2865839,79.2203886 C74.6476441,78.3493799 74.3281742,77.279172 74.3281742,75.9980471 C74.3281742,74.7247339 74.6398522,73.6467142 75.271,72.7796114 C76.1047384,71.6430036 77.2423629,71.0727468 78.6799774,71.0727468 M78.6527055,79.6734694 C79.5760514,79.6734694 80.2929107,79.298506 80.7915954,78.556391 C81.2240485,77.9158285 81.4344311,77.1073137 81.4344311,76.1308466 C81.4344311,74.9356508 81.1811928,74.0021482 80.6669242,73.3420564 C80.1604475,72.6819647 79.4747561,72.3538717 78.6098498,72.3538717 C77.6903999,72.3538717 76.9852286,72.7483644 76.4982318,73.5490675 C76.0813626,74.2130651 75.87098,75.0411093 75.87098,76.0175764 C75.87098,77.0174788 76.0813626,77.8455229 76.4982318,78.5017088 C76.9930205,79.2867884 77.7098798,79.6734694 78.6527055,79.6734694" id="Fill-56" fill="#7F398E" mask="url(#mask-2)"></path>
                <path d="M85.2123572,75.1352407 C85.3798841,73.9244214 85.8396091,72.9596719 86.5876361,72.2331804 C87.3785189,71.4598184 88.3680963,71.0770433 89.5485765,71.0770433 C90.1641404,71.0770433 90.7329526,71.17469 91.2667011,71.381701 C91.9952482,71.6551118 92.3575738,72.0535104 92.3575738,72.5651792 C92.3575738,72.9713895 92.1666711,73.1784005 91.7770737,73.1784005 C91.6290267,73.1784005 91.4809797,73.135436 91.3251407,73.0612245 L91.2433252,73.0182599 L90.8926876,72.8034372 C90.7251607,72.6979787 90.5147781,72.6042379 90.2576438,72.5261205 L89.8563584,72.4440973 C89.6810396,72.4284738 89.5446805,72.420662 89.4589691,72.420662 C88.7927575,72.420662 88.2005694,72.6550142 87.6707169,73.135436 C87.1408644,73.611952 86.8369785,74.1861146 86.759059,74.8423006 C86.6850355,75.424275 86.6538677,75.8187677 86.6538677,76.0140611 C86.6538677,77.2287863 86.9928174,78.1701006 87.6901968,78.8458158 C88.1849855,79.3418611 88.8044454,79.5957426 89.5485765,79.5957426 C89.6303919,79.5957426 89.7823349,79.584025 90.0044054,79.5566839 C90.4680264,79.4980959 90.8342479,79.3848257 91.1069661,79.197344 L91.2277413,79.1153208 L91.4809797,78.9551802 L91.7770737,78.8340982 C91.8199294,78.8223806 91.8627851,78.8223806 91.9134328,78.8223806 C92.0809597,78.8223806 92.2212147,78.8965921 92.3458859,79.0372034 C92.4705571,79.1739088 92.5328927,79.3340494 92.5328927,79.5176252 C92.5328927,79.7363539 92.4315973,79.939459 92.2134228,80.1230349 C92.1510872,80.1816229 91.9523925,80.3105166 91.6173387,80.5292452 C91.1731977,80.8065619 90.4797143,80.951079 89.5368885,80.951079 C88.1849855,80.951079 87.0980087,80.4706572 86.2915421,79.5176252 C85.5279311,78.6114637 85.1461257,77.4670442 85.1461257,76.076555 C85.1461257,75.7562738 85.1695015,75.4398984 85.2123572,75.1352407" id="Fill-57" fill="#7F398E" mask="url(#mask-2)"></path>
                <path d="M94.4652959,71.8586076 C94.4652959,71.6555024 94.5354234,71.4836442 94.6795744,71.3469388 C94.8198295,71.2102334 94.9951483,71.1360219 95.201635,71.1360219 C95.3964337,71.1360219 95.5639606,71.2141392 95.7042156,71.3547505 C95.8444707,71.4953618 95.9145982,71.6633141 95.9145982,71.8586076 L95.9145982,80.2210722 C95.9145982,80.4241773 95.8444707,80.5960355 95.7042156,80.7288351 C95.5639606,80.8694463 95.3925377,80.939752 95.1899471,80.939752 C94.9834604,80.939752 94.8120376,80.8694463 94.6717825,80.7288351 C94.5354234,80.5960355 94.4652959,80.4241773 94.4652959,80.2210722 L94.4652959,71.8586076 Z" id="Fill-58" fill="#7F398E" mask="url(#mask-2)"></path>
                <path d="M101.153904,71.9656284 C101.372079,71.3953715 101.714925,71.1024314 102.178546,71.1024314 C102.69671,71.1024314 103.059036,71.3953715 103.273314,71.9656284 L106.187503,79.8711063 C106.242047,80.0195293 106.269318,80.1562347 106.269318,80.3007519 C106.269318,80.7264916 106.027768,80.9374085 105.544667,80.9374085 C105.240781,80.9374085 105.030399,80.7694561 104.901831,80.4335514 L104.321331,78.8204277 L100.113679,78.8204277 L99.5175952,80.445269 C99.39682,80.773362 99.1747494,80.9374085 98.8513836,80.9374085 C98.3760747,80.9374085 98.1384203,80.7030563 98.1384203,80.2343521 C98.1384203,80.1367054 98.1617961,80.0195293 98.2163398,79.8711063 L101.153904,71.9656284 Z M103.89667,77.5432087 L102.221401,72.7311786 L100.514965,77.5432087 L103.89667,77.5432087 Z" id="Fill-59" fill="#7F398E" mask="url(#mask-2)"></path>
                <path d="M108.835597,71.8472805 C108.835597,71.6441754 108.90962,71.4684113 109.049875,71.3278 C109.19013,71.1871888 109.365449,71.1129772 109.575832,71.1129772 C109.77063,71.1129772 109.938157,71.1871888 110.078412,71.3278 C110.218667,71.4684113 110.288795,71.6363636 110.288795,71.8355629 L110.288795,79.5027829 L112.751051,79.5027829 C112.934161,79.5027829 113.101688,79.5652768 113.245839,79.6941705 C113.393886,79.8191583 113.46791,79.975393 113.46791,80.1589689 C113.46791,80.3464505 113.397782,80.4987794 113.257527,80.6198613 C113.12896,80.7409433 112.965329,80.807343 112.77053,80.807343 L109.684919,80.807343 C109.349865,80.807343 109.120003,80.7214139 109.007019,80.5612733 C108.897932,80.4050386 108.835597,80.2175569 108.835597,79.9949224 L108.835597,71.8472805 Z" id="Fill-60" fill="#7F398E" mask="url(#mask-2)"></path>
                <polygon id="Fill-61" fill="#7F398E" mask="url(#mask-2)" points="0 1.62874719 116.524691 1.62874719 116.524691 -1.42108547e-14 0 -1.42108547e-14"></polygon>
                <polygon id="Fill-62" fill="#7F398E" mask="url(#mask-2)" points="0 120 117 120 117 118.371253 0 118.371253"></polygon>
                <polygon id="Fill-1" fill="#7F398E" mask="url(#mask-2)" points="1.8688988 6.54779807 1.8688988 29.9556684 4.12077187 29.7174104 4.12077187 18.9059662 11.7374014 18.941119 11.8075289 16.7889855 4.0857081 16.7889855 4.0857081 8.62572014 13.2139756 8.62572014 12.9802171 6.54779807"></polygon>
            </g>
        </g>
    </g>
</svg>